<svg width="390" height="131" viewBox="0 0 390 131" fill="none" xmlns="http://www.w3.org/2000/svg">
<path d="M4.47662 62.4693C3.63125 61.3777 2.06098 61.178 0.969324 62.0234C-0.122334 62.8687 -0.32199 64.439 0.523379 65.5307L4.47662 62.4693ZM304.5 101.5L303.414 99.2481L304.5 101.5ZM217 70L214.606 69.279L217 70ZM388.5 0.5L364.117 15.9533L389.692 29.3429L388.5 0.5ZM0.523379 65.5307C32.9193 107.365 90.2996 126.012 148.653 129.736C207.061 133.463 267.13 122.293 305.586 103.752L303.414 99.2481C265.87 117.35 206.689 128.429 148.972 124.746C91.2004 121.059 35.5807 102.635 4.47662 62.4693L0.523379 65.5307ZM305.586 103.752C317.12 98.1906 324.869 92.7404 329.363 87.4259C333.927 82.0293 335.296 76.5342 333.44 71.339C331.668 66.3762 327.156 62.3133 321.447 59.0796C315.673 55.8094 308.313 53.1805 300.24 51.2557C284.099 47.4075 264.67 46.272 248.401 48.7552C240.269 49.9965 232.79 52.1622 226.877 55.4487C220.958 58.7387 216.417 63.2683 214.606 69.279L219.394 70.721C220.708 66.3567 224.097 62.7145 229.306 59.8189C234.522 56.9198 241.37 54.8863 249.156 53.6979C264.724 51.3217 283.501 52.405 299.08 56.1193C306.866 57.9758 313.745 60.4641 318.982 63.4302C324.284 66.4328 327.555 69.7254 328.732 73.0204C329.825 76.083 329.308 79.7481 325.545 84.1972C321.713 88.7283 314.695 93.8094 303.414 99.2481L305.586 103.752ZM214.606 69.279C213.976 71.372 213.958 73.4346 214.624 75.3712C215.283 77.2894 216.546 78.8943 218.17 80.2092C221.353 82.7877 226.187 84.4718 231.916 85.4476C243.46 87.4133 259.866 86.7015 277.807 83.0514C313.651 75.7591 356.649 56.515 380.139 21.8261L375.998 19.0226C353.541 52.1873 312.012 70.9901 276.811 78.1517C259.229 81.7286 243.485 82.3456 232.756 80.5185C227.349 79.5978 223.516 78.1052 221.317 76.3237C220.248 75.4585 219.641 74.5876 219.352 73.7463C219.069 72.9234 219.026 71.9427 219.394 70.721L214.606 69.279Z" fill="#FFBD27"/>
</svg>
