<svg xmlns="http://www.w3.org/2000/svg" viewBox="0 0 340.45 235.66"><defs><style>.cls-1{fill:#8fceed;}.cls-1,.cls-3{stroke:#184251;}.cls-1,.cls-2,.cls-5{stroke-miterlimit:10;}.cls-1,.cls-2,.cls-3,.cls-5{stroke-width:3px;}.cls-2{fill:#d85c36;stroke:#61271b;}.cls-3{fill:#f3f4f5;stroke-linecap:round;stroke-linejoin:round;}.cls-4{fill:#fff;}.cls-5{fill:#649d42;stroke:#3c6620;}</style></defs><g id="Layer_2" data-name="Layer 2"><path class="cls-1" d="M149.83,28.13H135.62l-4.27,50H73.17l-2.37-50H56.59S40.49,140.38,39.07,155.94s8.52,54.71,8.52,54.71H156.93s9.95-39.14,8.53-54.71S149.83,28.13,149.83,28.13Z"/><path class="cls-1" d="M47.59,210.65H156.93s1.08-4.25,2.47-10.49H45.12C46.51,206.4,47.59,210.65,47.59,210.65Z"/><polygon class="cls-2" points="203.83 57.96 201.09 210.65 338.93 210.65 336.18 57.96 203.83 57.96"/><path class="cls-3" d="M309.68,66.08c-1.3-17.89-15.08-45.68-27.49-60.15C278,1.05,274.28,1.76,271,1.5h-1.84c-3.33.26-7.06-.45-11.25,4.43C245.45,20.4,232.38,47,230.38,66.08a11.15,11.15,0,0,0,0,2.72L230,210.65h13.64L244,66.08c-.61-9.33,10.14-41.34,17.76-56.1,1.45-2.8,15.05-2.8,16.49,0,7.62,14.76,18.37,46.77,17.76,56.1l.38,144.57h13.65l-.38-142.47A14.66,14.66,0,0,0,309.68,66.08Z"/><circle class="cls-2" cx="34" cy="201.66" r="32.5"/><path class="cls-4" d="M22.88,187a2.52,2.52,0,0,0-3.56,0,2.49,2.49,0,0,0,0,3.55l25.8,25.69a2.51,2.51,0,0,0,3.56-3.55Z"/><path class="cls-4" d="M45.12,187l-25.8,25.69a2.51,2.51,0,0,0,3.56,3.55l25.8-25.69a2.49,2.49,0,0,0,0-3.55A2.52,2.52,0,0,0,45.12,187Z"/><circle class="cls-5" cx="211.29" cy="201.66" r="32.5"/><path class="cls-4" d="M225.32,190.23l-17.68,17.6-10.38-10.34a2.5,2.5,0,0,0-3.53,0,2.47,2.47,0,0,0,0,3.5l12.15,12.1a2.49,2.49,0,0,0,3.52,0l19.44-19.35a2.49,2.49,0,0,0-3.52-3.51Z"/></g></svg>