<svg xmlns="http://www.w3.org/2000/svg" viewBox="0 0 189.72 214.88"><defs><style>.cls-1{fill:#26384f;}.cls-1,.cls-2,.cls-3,.cls-4{stroke:#184251;stroke-width:3px;}.cls-1,.cls-3,.cls-4{stroke-linecap:round;stroke-linejoin:round;}.cls-2{fill:#8fceed;stroke-miterlimit:10;}.cls-3{fill:#f3f4f5;}.cls-4{fill:#f7eeff;}</style></defs><g id="Layer_2" data-name="Layer 2"><path class="cls-1" d="M10.18,148.46c-13.13-73.07,33.47-115,34-115.23l.94,2.19-1.67,1.71,1.67-1.71,1.55,1.82c-.45.39-44.19,41.31-31.77,110.37Z"/><polygon class="cls-2" points="175 140 95.82 170.8 68.5 31.54 101.05 18.88 175 140"/><polygon class="cls-2" points="107.75 166.16 95.82 170.8 68.5 31.54 73.4 29.63 107.75 166.16"/><polygon class="cls-2" points="130.17 157.44 118.24 162.08 77.71 27.95 82.61 26.05 130.17 157.44"/><polygon class="cls-2" points="152.58 148.72 140.66 153.36 86.93 24.37 91.83 22.46 152.58 148.72"/><polygon class="cls-2" points="175 140 163.07 144.64 96.14 20.79 101.05 18.88 175 140"/><path class="cls-3" d="M83.14,16.37A74.85,74.85,0,0,0,51,37.61a6.05,6.05,0,0,1-8.06,1l-.09-.07c-2.47-1.83-2.7-5.71-.27-8.44a86.08,86.08,0,0,1,37-24.43Q81.36,11,83.14,16.37Z"/><path class="cls-3" d="M103.41,19.32A124,124,0,0,1,67.08,33.45l-3.75-4.94,39.51-15.37Z"/><path class="cls-4" d="M102.87,13.12,63.29,28.51l-.06-.17A18,18,0,0,1,73.45,5.1l6.11-2.37A18,18,0,0,1,102.8,13Z"/><path class="cls-3" d="M147.54,204.06H42.18A34.36,34.36,0,0,1,7.81,169.7V148c61.56,1.23,118.52-3.93,174.1-11V169.7A34.36,34.36,0,0,1,147.54,204.06Z"/><path class="cls-4" d="M25.8,154.53q-9,0-18.11-.18a6.32,6.32,0,0,1,.25-12.63c66.74,1.33,127.61-5.15,173.17-11a6.31,6.31,0,0,1,1.6,12.52C140.86,148.62,86.21,154.53,25.8,154.53Z"/><rect class="cls-4" x="29.74" y="194.43" width="8.68" height="18.94" rx="4.3"/><rect class="cls-4" x="145.78" y="194.43" width="8.68" height="18.94" rx="4.3"/></g></svg>