<svg xmlns="http://www.w3.org/2000/svg" viewBox="0 0 238.01 234.94"><defs><style>.cls-1{fill:#dbdbdb;}.cls-1,.cls-2,.cls-3,.cls-7{stroke:#184251;}.cls-1,.cls-2,.cls-4,.cls-5,.cls-6,.cls-7{stroke-linecap:round;stroke-linejoin:round;}.cls-1,.cls-2,.cls-3,.cls-4,.cls-5,.cls-6,.cls-7{stroke-width:3px;}.cls-2,.cls-5{fill:#f3f4f5;}.cls-3,.cls-4{fill:#8fceed;}.cls-3{stroke-miterlimit:10;}.cls-4,.cls-5,.cls-6{stroke:#26384f;}.cls-6{fill:#d85c36;}.cls-7{fill:none;}</style></defs><g id="Layer_2" data-name="Layer 2"><path class="cls-1" d="M62.62,53.25s33.2-5.94,86.95-5.94,86.94,5.94,86.94,5.94L149.57,103.8Z"/><path class="cls-2" d="M62.62,53.25,94.54,219.07a272.6,272.6,0,0,0,56.17,5.6,272.62,272.62,0,0,0,53.88-5.6L236.51,53.25a482.3,482.3,0,0,1-86.37,7.91A482.1,482.1,0,0,1,62.62,53.25Z"/><path class="cls-3" d="M160.27,14.43A66.4,66.4,0,0,1,154.9,2a.72.72,0,0,0-1.39.07A42.7,42.7,0,0,1,148,15.17c-5.48,8.63-11.38,9.68-13,18-1.12,5.73-.11,11.69,4.43,16.56,6.93,7.43,20.45,7.89,27.31,1s4.93-17.15,4.63-18.34C169.75,25.87,165.32,23.46,160.27,14.43Z"/><path class="cls-4" d="M11.42,209.68c2.29,2.38,4.68,5.49,7.33,7.43,6.11,4.47,14.82,0,21-2.38-2.39-2.17-5.5-4.59-8.81-3.9s-4.11-.54-6.77-3.13-5.36-5.85-9.06-7.16a12.44,12.44,0,0,0-13.64,3C1.79,203.62,6.48,204.54,11.42,209.68Z"/><polygon class="cls-5" points="44.79 219.2 45.27 210.09 34.07 210.69 33.72 217.32 44.79 219.2"/><path class="cls-5" d="M47.35,225.33s1.8-3.4,2.12-10.36a37.69,37.69,0,0,0-1-11.33s-6.74,1.9-7.16,11S47.35,225.33,47.35,225.33Z"/><polygon class="cls-5" points="139.08 233.06 140.5 206.48 48.5 203.64 47.35 225.33 139.08 233.06"/><path class="cls-6" d="M58.71,225.23c1.86-6.21,5.19-11.78,8.85-17.06.9-1.31,1.83-2.59,2.79-3.86l-21.85-.67a36.58,36.58,0,0,0-1.15,21.69l11.06.93C58.51,225.92,58.6,225.57,58.71,225.23Z"/><path class="cls-6" d="M109.22,227.23c-.83,1-1.65,2.05-2.45,3.1l32.31,2.73,1.42-26.58-8.81-.27A222.24,222.24,0,0,0,109.22,227.23Z"/><polygon class="cls-5" points="144.54 233.44 145.96 206.78 140.56 206.47 139.14 233.13 144.54 233.44"/><path class="cls-7" d="M220.67,95.32A395.32,395.32,0,0,1,150,101.79a394.59,394.59,0,0,1-71.57-6.47"/><path class="cls-7" d="M213,132.92a245.59,245.59,0,0,1-63,8.41,245.64,245.64,0,0,1-63.88-8.41"/><path class="cls-7" d="M205.41,169.5A244.92,244.92,0,0,1,149.94,176a245.24,245.24,0,0,1-56.22-6.47"/><path class="cls-7" d="M62.62,53.25s-36,101.78,52.78,100,121.11-100,121.11-100"/></g></svg>