<svg xmlns="http://www.w3.org/2000/svg" viewBox="0 0 292.93 238.83"><defs><style>.cls-1{fill:#f3f4f5;}.cls-1,.cls-2{stroke:#184251;stroke-linecap:round;stroke-linejoin:round;}.cls-1,.cls-10,.cls-2,.cls-7{stroke-width:3px;}.cls-2{fill:#8fceed;}.cls-3{fill:#184251;}.cls-4{fill:#26384f;}.cls-5{fill:#144e5c;}.cls-6,.cls-9{fill:#fff;}.cls-6{opacity:0.8;}.cls-7{fill:#d85c36;stroke:#61271b;}.cls-10,.cls-7{stroke-miterlimit:10;}.cls-8{fill:#f1b222;}.cls-10{fill:#649d42;stroke:#3c6620;}</style></defs><g id="Layer_2" data-name="Layer 2"><path class="cls-1" d="M203.89,88.65l-9.92-40H167.52l-9.92,40-16,22.77a6.84,6.84,0,0,0-1.26,3.94v87.52l9.2,10.94H212l9.2-10.94V115.36a6.84,6.84,0,0,0-1.26-3.94Z"/><path class="cls-2" d="M196.46,97.79a5.64,5.64,0,0,1-.92-2.17L194,87.44H167.52L166,95.62a5.64,5.64,0,0,1-.92,2.17l-14.3,20.32a.55.55,0,0,0-.1.32v76.13l5.09,6.06h50.05l5.09-6.06V118.43a.55.55,0,0,0-.1-.32Z"/><path class="cls-3" d="M176.21,51.37c0,.26.09,26.26,3.15,55.92,4.13,40,13.28,68.76,23.53,85.37l3.54-2.67C182.85,151.75,180.5,52.36,180.5,51.37Z"/><path class="cls-4" d="M202.47,20.3s-8.07,5.86-8.05,12.11c0,0,11.74,15,21.58,19.65a1.69,1.69,0,0,0,2.1-2.52C213.23,43,203.93,29.6,202.47,20.3Z"/><path class="cls-4" d="M223.56,4.06l-8.89-.52v8.75l8.89-.59a.6.6,0,0,0,.51-.64V4.71A.62.62,0,0,0,223.56,4.06Z"/><path class="cls-5" d="M213.66,2.81h-2.48V13h2.48a1.53,1.53,0,0,0,1.55-1.51V4.32A1.53,1.53,0,0,0,213.66,2.81Z"/><path class="cls-1" d="M164.71,1.5a5.37,5.37,0,0,0-3.59,1.37L137.91,23.73A2.83,2.83,0,0,0,138,28a3,3,0,0,0,2,.72c11.68-.12,19.44-.1,23.83-.06A4.4,4.4,0,0,1,168.19,33v7h25.43c0-15.52,17-25,17.55-25.33,0,0,0,0,0,0V1.55a0,0,0,0,0-.05-.05Z"/><path class="cls-4" d="M193.83,40H168.09a1.42,1.42,0,0,0-1.43,1.4V50a1.42,1.42,0,0,0,1.43,1.4h25.74a1.43,1.43,0,0,0,1.44-1.4V41.4A1.43,1.43,0,0,0,193.83,40Z"/><path class="cls-6" d="M160.17,145a4.2,4.2,0,1,0,4.3,4.2A4.25,4.25,0,0,0,160.17,145Z"/><path class="cls-6" d="M167.92,130.08a3.38,3.38,0,1,0,0,6.75c1.91,0,5.7-1.51,5.7-3.38S169.83,130.08,167.92,130.08Z"/><path class="cls-6" d="M160.17,119.83a2.08,2.08,0,1,0,2.13,2.07A2.11,2.11,0,0,0,160.17,119.83Z"/><path class="cls-6" d="M185.76,188.47a4.2,4.2,0,1,0,0,8.39c2.37,0,6.54-1.88,6.54-4.2S188.13,188.47,185.76,188.47Z"/><path class="cls-6" d="M178,173.52a3.38,3.38,0,1,0,3.45,3.38A3.42,3.42,0,0,0,178,173.52Z"/><path class="cls-6" d="M185.76,163.27a2.08,2.08,0,1,0,2.13,2.08A2.1,2.1,0,0,0,185.76,163.27Z"/><path class="cls-1" d="M64.42,137.79l31-23.07c2.61-1.94,5.66-4,9.25-3.86,3.88.18,6.69,2.87,9,5.32Q135,139.12,156.4,162c-37.58,7.5-77.7,10.39-116.13,6.3C40.84,156.05,53,146.26,64.42,137.79Z"/><path class="cls-7" d="M181,161c0,22.09-14.53,41.52-36.51,52.8-.26,0-.5,0-.77,0H56C34,202.51,19.5,183.09,19.5,161v-.33H181Z"/><ellipse class="cls-8" cx="250.85" cy="171.91" rx="42.08" ry="41.91"/><ellipse class="cls-9" cx="250.85" cy="171.91" rx="37.74" ry="37.59"/><path class="cls-8" d="M241.64,139.62h0a44.54,44.54,0,0,1,18.43.13,1.52,1.52,0,0,1,.62.43.91.91,0,0,1,.1.75L252,168.45a1,1,0,0,1-1,.66,1.07,1.07,0,0,1-.27,0,.91.91,0,0,1-.68-.63l-9.14-27.64a.92.92,0,0,1,.09-.76A.94.94,0,0,1,241.64,139.62Z"/><path class="cls-8" d="M249.74,175.38a1,1,0,0,1,.95-.66,1,1,0,0,1,.27,0,.9.9,0,0,1,.68.62L260.78,203a.89.89,0,0,1-.09.76.94.94,0,0,1-.63.43h0a44.37,44.37,0,0,1-18.43-.12,1.46,1.46,0,0,1-.62-.44.9.9,0,0,1-.09-.75Z"/><path class="cls-8" d="M219,162.11a.92.92,0,0,1,.76-.09l27.63,8.79a1,1,0,0,1,.67.94,1.23,1.23,0,0,1,0,.28.88.88,0,0,1-.62.67l-27.76,9.11a.89.89,0,0,1-.76-.1,1,1,0,0,1-.44-.62h0a44,44,0,0,1,.12-18.35A1.66,1.66,0,0,1,219,162.11Z"/><path class="cls-8" d="M254.33,171.12l27.75-9.1a.92.92,0,0,1,.76.09.94.94,0,0,1,.44.63h0a44,44,0,0,1-.12,18.35,1.61,1.61,0,0,1-.44.63.9.9,0,0,1-.75.09L254.33,173a1,1,0,0,1-.66-1,1.07,1.07,0,0,1,0-.27A.91.91,0,0,1,254.33,171.12Z"/><path class="cls-8" d="M221.41,155.56a44.17,44.17,0,0,1,13.12-12.89,1.46,1.46,0,0,1,.75-.13.89.89,0,0,1,.59.46l13.3,25.68a.94.94,0,0,1-.2,1.14.83.83,0,0,1-.21.17.93.93,0,0,1-.93,0l-26.09-13.12a.9.9,0,0,1-.47-.6,1,1,0,0,1,.14-.75Z"/><path class="cls-8" d="M252.94,173.84a.93.93,0,0,1,.93,0L280,186.91a.94.94,0,0,1,.33,1.36h0a44.26,44.26,0,0,1-13.11,12.89,1.62,1.62,0,0,1-.75.13.9.9,0,0,1-.6-.47l-13.3-25.67a1,1,0,0,1,.2-1.14A1.07,1.07,0,0,1,252.94,173.84Z"/><path class="cls-8" d="M221.82,186.83l25.79-13.25a1,1,0,0,1,1.14.2,1.21,1.21,0,0,1,.17.22.91.91,0,0,1,0,.92l-13.17,26a.89.89,0,0,1-.6.47,1,1,0,0,1-.76-.13h0a44.29,44.29,0,0,1-12.94-13.07,1.45,1.45,0,0,1-.13-.74A.88.88,0,0,1,221.82,186.83Z"/><path class="cls-8" d="M265.91,142.92a.92.92,0,0,1,.61-.47,1,1,0,0,1,.75.14h0a44.13,44.13,0,0,1,12.94,13.06,1.4,1.4,0,0,1,.13.75.9.9,0,0,1-.46.6L254.1,170.24A1,1,0,0,1,253,170a1.63,1.63,0,0,1-.17-.21.92.92,0,0,1,0-.92Z"/><path class="cls-9" d="M250.85,165.7a6.22,6.22,0,1,1-6.24,6.21A6.22,6.22,0,0,1,250.85,165.7Z"/><circle class="cls-10" cx="34" cy="204.83" r="32.5"/><path class="cls-9" d="M48,193.4,30.36,211,20,200.66a2.49,2.49,0,0,0-3.52,0,2.46,2.46,0,0,0,0,3.51l12.14,12.09a2.5,2.5,0,0,0,3.53,0l19.43-19.35a2.46,2.46,0,0,0,0-3.51A2.49,2.49,0,0,0,48,193.4Z"/></g></svg>