<svg xmlns="http://www.w3.org/2000/svg" viewBox="0 0 221.68 277.36"><defs><style>.cls-1{fill:#69493b;}.cls-2{fill:#28789d;stroke:#184251;}.cls-2,.cls-3,.cls-4{stroke-linecap:round;stroke-linejoin:round;}.cls-2,.cls-3,.cls-4,.cls-6{stroke-width:3px;}.cls-3{fill:#ffb312;}.cls-3,.cls-4{stroke:#9b3a2a;}.cls-4{fill:#d85c36;}.cls-5{fill:#fff;}.cls-6{fill:#649d42;stroke:#3c6620;stroke-miterlimit:10;}</style></defs><g id="Layer_2" data-name="Layer 2"><path class="cls-1" d="M88.62,45.25c-.35,5.9.93,12,4.57,16.77,12.35,16.13,28.27,8.67,34.63,0a25.79,25.79,0,0,0,4.57-16.77C122.14,49.07,98.87,49.07,88.62,45.25Z"/><path class="cls-2" d="M113.81,27.87c0-.13.14-.23.27-.26a13.3,13.3,0,0,0,10-13.48A13.36,13.36,0,0,0,111.46,1.52,13.28,13.28,0,0,0,97.53,14.75a3,3,0,0,0,5.94,0,7.35,7.35,0,0,1,7.72-7.32,7.33,7.33,0,0,1,1.44,14.44,6.22,6.22,0,0,0-4.76,6V38.35L88.73,50.19a26.09,26.09,0,0,0,1.37,6.12l20.31-12.57a1.87,1.87,0,0,0,.86,0L131,55.94a26.88,26.88,0,0,0,1.32-6.15L113.81,38.35Z"/><path class="cls-3" d="M162.55,47.77l-25.86-4.29c1.55,12.34-4.89,23.91-15.27,28.27-9.71,4.08-20.16.68-26.74-4.89C84.23,58,84.89,44.91,85,43.48L59.13,47.77A34,34,0,0,0,35.71,63.23L1.5,109.79l27.73,24,20.11-19s4.48,67-7.43,133.11c0,0,26,4.31,68,4.43h1.78c42-.12,68-4.43,68-4.43-13-67.12-7.42-133.11-7.42-133.11l20.11,19,27.73-24L186,63.23A33.94,33.94,0,0,0,162.55,47.77Z"/><path class="cls-4" d="M10.66,97.33,1.5,109.79l27.73,24,9.54-9A264,264,0,0,1,10.66,97.33Z"/><path class="cls-4" d="M182.43,124.41c-.13.11,10,9.38,10,9.38l27.73-24-7.86-9.6C202.63,108.39,192.38,116.47,182.43,124.41Z"/><path class="cls-4" d="M132.39,45.25A25.79,25.79,0,0,1,127.82,62c-6.36,8.67-22.28,16.13-34.63,0-3.64-4.76-4.92-10.87-4.57-16.77-6-3.87-9.11,0-9.11,0-1.91,12.64,3.18,25.13,13.15,32,12.9,8.84,30.39,5.74,40.62-4.29,11.24-11,9.69-26.41,9.45-28.44C142.73,44.48,137.11,41.56,132.39,45.25Z"/><path class="cls-5" d="M119.08,127.88a9.41,9.41,0,0,0-8.24-4.75h0a9.41,9.41,0,0,0-8.24,4.75l-6.92,12,4.28,2.47,6.92-12a4.57,4.57,0,0,1,7.92,0l14.48,25L125,157.84l12.79,7.38V150.46l-4.26,2.46Z"/><path class="cls-5" d="M142.68,168.7l-4.28,2.47,7.51,13a4.58,4.58,0,0,1-4,6.86H113v-4.91l-12.79,7.38L113,200.86V196H142a9.5,9.5,0,0,0,8.24-14.25Z"/><path class="cls-5" d="M75.76,188.73a4.55,4.55,0,0,1,0-4.57l14.48-25,4.26,2.46V146.82L81.7,154.2,86,156.66l-14.47,25A9.5,9.5,0,0,0,79.73,196h16V191h-16A4.54,4.54,0,0,1,75.76,188.73Z"/><circle class="cls-6" cx="36.37" cy="243.36" r="32.5"/><path class="cls-5" d="M50.39,231.93,32.72,249.52,22.34,239.18a2.52,2.52,0,0,0-3.53,0,2.48,2.48,0,0,0,0,3.51L31,254.79a2.51,2.51,0,0,0,3.52,0l19.44-19.35a2.49,2.49,0,0,0-3.53-3.51Z"/></g></svg>