<svg xmlns="http://www.w3.org/2000/svg" viewBox="0 0 468.42 612.78"><defs><style>.cls-1{isolation:isolate;}.cls-2,.cls-24,.cls-3{fill:#f7eeff;}.cls-15,.cls-2,.cls-24,.cls-3,.cls-4,.cls-5{stroke:#a02273;}.cls-2,.cls-24{stroke-miterlimit:10;}.cls-13,.cls-14,.cls-2,.cls-3,.cls-4,.cls-5,.cls-8,.cls-9{stroke-width:3.17px;}.cls-13,.cls-14,.cls-15,.cls-17,.cls-18,.cls-22,.cls-23,.cls-24,.cls-3,.cls-4,.cls-5,.cls-8,.cls-9{stroke-linecap:round;}.cls-13,.cls-14,.cls-15,.cls-17,.cls-18,.cls-22,.cls-23,.cls-3,.cls-4,.cls-5,.cls-8,.cls-9{stroke-linejoin:round;}.cls-4,.cls-8{fill:#e2aeec;}.cls-5{fill:#fffaf4;}.cls-6{fill:#f5b8bc;}.cls-6,.cls-7{mix-blend-mode:darken;}.cls-7{fill:#cf84bc;}.cls-8{stroke:#e889d6;}.cls-9{fill:#f5ecef;stroke:#61271b;}.cls-10{fill:#61271b;}.cls-11{fill:#221e1f;}.cls-12{fill:#efedee;}.cls-13{fill:#ffb312;}.cls-13,.cls-14{stroke:#9b3a2a;}.cls-14,.cls-15,.cls-18,.cls-22{fill:none;}.cls-15{stroke-width:6.34px;}.cls-16{fill:#a02273;}.cls-17,.cls-20{fill:#5b7fae;}.cls-17,.cls-18{stroke:#303383;}.cls-17,.cls-18,.cls-22,.cls-23{stroke-width:2.62px;}.cls-19{fill:#9c2825;}.cls-21{fill:#a8d1e1;}.cls-22{stroke:#000;}.cls-23{fill:#f6b719;stroke:#9c2825;}.cls-24{stroke-width:3.17px;}</style></defs><g class="cls-1"><g id="Layer_2" data-name="Layer 2"><path class="cls-2" d="M249.06,365.3c-5.54-7.09-19.67,4.44-24.53,8a145.52,145.52,0,0,1-36.31,17.94c-22.54,7.38-44.84-3.92-59.15-16.37-12-10.48-32.57-6.65-37.46,7.1-3.48,9.8-.71,22,13.9,30.31C172.4,443.05,248.26,381.59,249.06,365.3Z"/><path class="cls-2" d="M274.43,369.16c2.63-1.74-2.4-14.5-.34-14.24,3.24.42,13.16,15,15.16,17.7A133.46,133.46,0,0,0,316,397.86c17.61,12.49,40.14,9.07,56,2.47,13.37-5.57,30.19,3.35,30.69,16.36.35,9.27-5.4,18.85-20.41,21.86-26.94,6.07-59.17-8.41-75.06-20.07S267.65,373.64,274.43,369.16Z"/><path class="cls-3" d="M272.57,445.63c-8-2.34-14.54,7.61-19.82,14a782.6,782.6,0,0,0-47.67,64.58c-12.5,18.91-24.67,40.84-20.13,63.06,1.47,7.19,4.86,14.22,10.61,18.8s14.06,6.25,20.66,3c5.67-2.77,9.29-8.63,11.05-14.69s1.95-12.44,2.53-18.72c3.74-40,23.91-76.41,43.64-111.44C273.44,464.28,283.59,448.86,272.57,445.63Z"/><path class="cls-4" d="M184.88,587.7c1.47,7.19,4.87,14.22,10.61,18.8s14.07,6.25,20.66,3c5.67-2.77,9.29-8.63,11-14.68.45-1.56,1.86-12.09,2.38-15.68a.15.15,0,0,0-.29-.08c-1.91,4.33-9,21.56-23.37,16.57-12.82-5.93-17.92-20.09-20-27.84a.54.54,0,0,0-1,0A51.79,51.79,0,0,0,184.88,587.7Z"/><path class="cls-3" d="M231.31,525.09c-2.49,6.1-5.92,12-11.2,16-5.92,4.4-13.56,5.84-20.93,5.86-17.62,0-36.06-5.15-47.88-18.22-3.35-3.7-6.37-8.09-6.75-13.08-.71-9.44,9.64-19.73,19-20.74s18.61,2.8,27.31,6.54l13.72,5.9,3.64-28.45c5.44-33.86,14.17-35.71,19.72-32.72a11.2,11.2,0,0,1,5.67,8.51C235.16,466.81,239.17,505.79,231.31,525.09Z"/><path class="cls-4" d="M188.68,500.54c-52.39-28.28-62.74,24.95-26.08,37.2.27.09.28.52.13.28C149.93,518,162.76,495.82,188.68,500.54Z"/><path class="cls-5" d="M328.56,441.2c-8.13-7.37-22.15-18.37-46.36-27.22l-8-60c-2.89-22.42-30.09-22.64-35.11-6.32l-15.89,62.73c-7.94.47-31.6,4.6-50.36,16.54C192.39,504.21,304.48,500.18,328.56,441.2Z"/><path class="cls-6" d="M281,392.88l-6.14-39.16c-3.25-22.4-30.49-22.17-35.25-5.76l-10.66,45.1C250.83,398,267,396.39,281,392.88Z"/><path class="cls-3" d="M110.05,47c-24.92.41-44.57,25-46.14,50.15s16.28,47.22,33,66.12h0A50.71,50.71,0,0,0,58.8,149.44c-13.4.93-26.4,5.41-36.81,13.82-17.18,13.9-25.5,39.22-17.11,60,6.59,16.34,22.41,28,39.47,31.56s31.31,1.2,46.51-7.14c31.78-17.43,50.75-51.81,62.77-86.35,7.86-22.61,13.5-47.21,7.69-70.61S133.84,46.62,110.05,47Z"/><path class="cls-4" d="M153.44,215.63l-.19-.06a35.7,35.7,0,0,1-24.49-44.16l.6-2.1a35.72,35.72,0,0,1,44.17-24.49l.19.06c5.79,1.65,32.26,10.21,24.37,43.59S159.23,217.28,153.44,215.63Z"/><path class="cls-7" d="M135,205.14a35.39,35.39,0,0,0,15.85,9.52l.19.06a21.79,21.79,0,0,0,27-14.95l8.27-28.84a21.79,21.79,0,0,0-15-27l-.19-.06a35.77,35.77,0,0,0-8.15-1.35,102,102,0,0,0-20.93,29.15A74.35,74.35,0,0,0,135,205.14Z"/><path class="cls-3" d="M282.55,37.84C299,3.07,361.19-16.22,385.09,24.47,400.87,50.26,395.15,81,373.92,98.13c8-7.14,19.18-9.36,29.87-10.08,22.72-1.53,45.81,4.75,57,24.57,9.11,16.12,8,37.43-4.18,51.34s-31.2,20.66-49.71,20.92-36.66-5.4-53.54-13C333.18,162.77,257.78,88.15,282.55,37.84Z"/><path class="cls-4" d="M329.11,177.07l.14-.14a35.7,35.7,0,0,0,.7-50.49l-1.52-1.56a35.71,35.71,0,0,0-50.49-.71l-.15.14c-4.23,4.12-25.34,26.55-1.63,51.07S324.71,181.35,329.11,177.07Z"/><path class="cls-7" d="M289.68,118.09a35.48,35.48,0,0,0-11.62,7.56l-.15.14a21.79,21.79,0,0,0-.42,30.82l20.92,21.51a21.8,21.8,0,0,0,30.82.43l.14-.14a35.53,35.53,0,0,0,7.76-11.14C328.73,145.76,311,127.7,289.68,118.09Z"/><path class="cls-3" d="M332.8,184.77a98.79,98.79,0,0,0-190.62,34c-26.67,23-40.66,51.88-35,79.85,10.3,50.76,81.47,79.16,159,63.43s132-69.63,121.65-120.39C382.61,216.11,362,196.21,332.8,184.77Z"/><circle class="cls-8" cx="319.5" cy="223.44" r="20.65"/><circle class="cls-8" cx="151.86" cy="253.94" r="20.65"/><path class="cls-9" d="M231.87,207.44c3.44,16.95-7.2,35-24.14,38.45s-33.78-9-37.22-26a31.31,31.31,0,1,1,61.36-12.46Z"/><path class="cls-10" d="M308,195.48c-6.21.94-12.45,1.58-18.65,2.53a.65.65,0,0,0-.21.06.79.79,0,0,0-.62.7l-1.07,6.7c-.1.64.56,1.35,1.22,1l19.72-9.23C309.24,196.85,309.08,195.31,308,195.48Z"/><path class="cls-10" d="M298.8,182.67c-5.64,2.74-8,3.55-13.68,6.29a1.18,1.18,0,0,0-.19.11.82.82,0,0,0-.38.85c.32,2.24,1.36,4,1.68,6.19a.93.93,0,0,0,1.47.63c3.14-3.16,9-9.12,12-12.48C300.43,183.61,299.82,182.18,298.8,182.67Z"/><path class="cls-10" d="M289.08,187.41a44.34,44.34,0,0,0-11.51-11.93,34.9,34.9,0,0,0-15.13-6.21,26.81,26.81,0,0,0-8.15.11,26.29,26.29,0,0,0-7.58,2.55.73.73,0,0,0-.34.94.74.74,0,0,0,.92.4,23.71,23.71,0,0,1,14.47-.61,30.54,30.54,0,0,1,12.4,7.09,38.6,38.6,0,0,1,8.45,11.38c2.1,4.34,4.52,11,4.61,15.2a.71.71,0,0,0,.24.53.7.7,0,0,0,.55.18l6.58-3.55h.08a.71.71,0,0,0,.43-.27.73.73,0,0,0,.14-.56A37,37,0,0,0,289.08,187.41Z"/><path class="cls-9" d="M287.14,196.79c3.44,17-7.87,34.34-25.45,37.91s-34.78-8-38.22-25,7.72-35.1,25.3-38.67S283.7,179.85,287.14,196.79Z"/><path class="cls-10" d="M154.47,209.54c6.26.32,8.79.14,15.05.46a.78.78,0,0,1,.22,0,.81.81,0,0,1,.68.63c.58,2.19.29,4.17.87,6.35.16.63-.43,1.4-1.12,1.16-4.11-1.68-11.81-4.9-15.92-6.81C153.33,211,153.34,209.48,154.47,209.54Z"/><circle class="cls-11" cx="202.91" cy="212.98" r="15.54"/><ellipse class="cls-12" cx="209.94" cy="210.11" rx="4.84" ry="5.79" transform="translate(-37.6 45.96) rotate(-11.47)"/><path class="cls-10" d="M151.38,224.7c6.13-1.33,12.19-3,18.32-4.29l.22,0a.81.81,0,0,1,.82.43c1.14,2,1.55,4.07,2.69,6,.32.56.67,1.31-.06,1.26l-21.72-1.58C150.68,226.45,150.28,224.94,151.38,224.7Z"/><path class="cls-10" d="M200.63,182.05a26.18,26.18,0,0,0-8,0,26.47,26.47,0,0,0-7.77,2.47,34.63,34.63,0,0,0-12.4,10.67,44.19,44.19,0,0,0-7.16,15,37.24,37.24,0,0,0-1.1,16.41.74.74,0,0,0,.32.49.73.73,0,0,0,.54.1h0l8.61,1.36a.7.7,0,0,0,.47-.35.71.71,0,0,0,.06-.57c-1.25-4.06-2.23-11.18-1.61-16A38.8,38.8,0,0,1,177,198.12a30.53,30.53,0,0,1,9.54-10.63,23.3,23.3,0,0,1,6.57-3.07,23.92,23.92,0,0,1,7.35-.92.73.73,0,0,0,.13-1.45Z"/><path class="cls-13" d="M235.9,298.22a64.9,64.9,0,0,1-22.05-1.59,66,66,0,0,1-24-11.5,15.32,15.32,0,0,1-3.14-20.93A14.15,14.15,0,0,1,207,261.11,36.24,36.24,0,0,0,259.61,252a14.16,14.16,0,0,1,20.1-3.91,15.31,15.31,0,0,1,3.92,20.79,66.93,66.93,0,0,1-18.85,18.94,64.82,64.82,0,0,1-24.55,9.86C238.8,297.88,237.35,298.08,235.9,298.22Z"/><path class="cls-14" d="M272.08,259.65a50.39,50.39,0,0,1-73.22,12.73"/><circle class="cls-13" cx="227.49" cy="235.17" r="12.52"/><path class="cls-15" d="M203.45,162.49c-3.25-.54-19-4.49-26.71,12.79"/><path class="cls-15" d="M234.65,155.71c2.83-1.68,16.09-11.05,29.53,2.26"/><circle class="cls-11" cx="253.99" cy="202.74" r="15.54"/><ellipse class="cls-12" cx="261.71" cy="199.44" rx="4.84" ry="5.79" transform="translate(-34.44 56.05) rotate(-11.47)"/><path class="cls-16" d="M360.06,406.23c5.56-.6,13.22-.32,15.95,5.55a7.3,7.3,0,0,1-.06,6.77c-1.62,2.56-5.12,2.7-7.82,2.66a53.08,53.08,0,0,1-13.38-2,1.7,1.7,0,0,0-.9,3.28,57.55,57.55,0,0,0,13.87,2.11c3.73.09,8-.33,10.53-3.46a10,10,0,0,0,1.42-9.25,12.2,12.2,0,0,0-6.6-7.46c-4.06-1.89-8.62-2.07-13-1.6a1.75,1.75,0,0,0-1.7,1.7,1.72,1.72,0,0,0,1.7,1.7Z"/><path class="cls-17" d="M124.27,302.39a12.81,12.81,0,0,1,9.45,2.27c4.56,3.31,8,14.78,3.77,27.36"/><path class="cls-17" d="M66.3,357S45.48,383.4,35.51,405c-6.52,14.1,2.56,13.5,2.56,13.5s1.34,5.31,4.64,5.59,6.65-4,6.65-4,3,4.13,7,1.06c16.18-12.36,25.07-53.28,25.07-53.28"/><path class="cls-18" d="M49.36,420c1-1.47,8.07-11.77,10.81-15.76"/><path class="cls-18" d="M38.9,417.87c1.24-1.5,7.74-11.54,9.51-13.38"/><path class="cls-19" d="M113.68,384.66a1.47,1.47,0,0,1-1.79-.3c-6.42-7.11-11.85-4.71-12.08-4.6a1.46,1.46,0,1,1-1.27-2.63c.3-.15,7.55-3.55,15.52,5.27a1.46,1.46,0,0,1-.1,2.06A1.31,1.31,0,0,1,113.68,384.66Z"/><path class="cls-19" d="M108.11,387.72a1.46,1.46,0,0,1-1.88-.42c-2.71-3.74-8.14-7.43-8.2-7.47a1.46,1.46,0,0,1,1.64-2.42c.24.16,5.91,4,8.92,8.17a1.47,1.47,0,0,1-.32,2.05A.83.83,0,0,1,108.11,387.72Z"/><path class="cls-19" d="M98.43,379.94a1.5,1.5,0,0,1-.42.15,11.56,11.56,0,0,0-5.46,3,1.46,1.46,0,0,1-2.12-2,14.34,14.34,0,0,1,7-3.87,1.46,1.46,0,0,1,1,2.72Z"/><path class="cls-19" d="M99.19,379.23a1.49,1.49,0,0,1-.4.15,1.46,1.46,0,0,1-1.74-1.12l-3-14.21a1.46,1.46,0,1,1,2.86-.61l3,14.21A1.45,1.45,0,0,1,99.19,379.23Z"/><path class="cls-19" d="M131.23,378.81a1.46,1.46,0,0,1-1.75-.46c-5.81-7.77-12.18-5.44-12.24-5.42a1.46,1.46,0,0,1-1-2.73c.34-.13,8.51-3.12,15.63,6.4a1.45,1.45,0,0,1-.29,2A1.28,1.28,0,0,1,131.23,378.81Z"/><path class="cls-19" d="M127.41,381.35a1.46,1.46,0,0,1-1.85-.63c-3-5.29-9.6-7.6-9.67-7.62a1.46,1.46,0,0,1,.94-2.77c.32.11,7.74,2.68,11.27,9a1.46,1.46,0,0,1-.55,2Z"/><path class="cls-19" d="M115.83,373a1.36,1.36,0,0,1-.44.11,11.55,11.55,0,0,0-5.71,2.49,1.46,1.46,0,0,1-1.93-2.2,14.39,14.39,0,0,1,7.36-3.2,1.46,1.46,0,0,1,.72,2.8Z"/><path class="cls-19" d="M116.64,372.36a1.64,1.64,0,0,1-.41.11,1.46,1.46,0,0,1-1.62-1.28l-1.69-14.43a1.46,1.46,0,1,1,2.9-.34l1.69,14.43A1.46,1.46,0,0,1,116.64,372.36Z"/><path class="cls-20" d="M118.76,296.64c.26.18,11.82,9.07,16.1,19.27s6.47,30.57-9,46.3c-9.35,9.51-35,14-47.7,7.88-13.41-6.45-24.28-15.7-17.51-36s11.73-30.2,11.73-30.2"/><path class="cls-21" d="M134.86,315.91a17.58,17.58,0,0,0-3.59-5.87c.76.33-6.93-10.18-18.93-6.2-13.16,4.38-20.07,18.6-22.12,23.54h0c-.88,2.17-11.85,32.95-1.28,45.33,13.12,1.08,29.76-3.25,36.9-10.51C141.33,346.48,139.15,326.1,134.86,315.91Z"/><path class="cls-18" d="M118.76,296.64c.26.18,11.82,9.07,16.1,19.27s6.47,30.57-9,46.3c-9.35,9.51-35,14-47.7,7.88-13.41-6.45-24.28-15.7-17.51-36s11.73-30.2,11.73-30.2"/><path class="cls-17" d="M80.86,314.25s7.28-2.95,11.54.72c4.86,4.2,5.87,15.57-4.87,31.51-9.92,14.72-26,26.07-30.38,27.82-10.28,4.12-10.54-2.83-6.59-13.32S63,327.89,63,327.89"/><path class="cls-18" d="M57.15,374.3c.85-1.15,10.71-17,11.58-19.29"/><path class="cls-18" d="M49.4,373.34c1.12-1.52,6.41-10.6,7.5-12.32"/><path class="cls-17" d="M119.67,298s3.54-31.05-27.32-28.11C61.81,272.78,72,306.55,72,306.55"/><path class="cls-22" d="M92.74,289.24c1,.59-7.94-6.15-12.64,5.23"/><path class="cls-22" d="M116.35,284.82c-.49-2.73-6-5-8.83.89"/><path class="cls-23" d="M95.58,297.93l4.32-12.32s13.26,5.41,13.55,7c.19,1.06-6.88,9.32-8.81,9.65C102.17,302.68,95.58,297.93,95.58,297.93Z"/><path class="cls-24" d="M136.15,380.8c-4.47-2.61-9.78-4.6-14.78-3.23s-8.87,7.34-6.42,11.91c1.29,2.4,3.87,3.79,6.37,4.85a54.85,54.85,0,0,0,13.48,3.73"/></g></g></svg>