<svg xmlns="http://www.w3.org/2000/svg" viewBox="0 0 319.09 287.16"><defs><style>.cls-1{fill:#649d42;stroke:#3c6620;}.cls-1,.cls-2,.cls-6{stroke-miterlimit:10;}.cls-1,.cls-2,.cls-3,.cls-5,.cls-6{stroke-width:3px;}.cls-2{fill:#3c6620;stroke:#221e1f;}.cls-3{fill:#ffb312;stroke:#9b3a2a;}.cls-3,.cls-5{stroke-linecap:round;stroke-linejoin:round;}.cls-4{fill:#fff;}.cls-5{fill:#f3f4f5;stroke:#184251;}.cls-6{fill:#d85c36;stroke:#61271b;}</style></defs><g id="Layer_2" data-name="Layer 2"><rect class="cls-1" x="108.89" y="36.73" width="41.99" height="66.79"/><path class="cls-1" d="M135,70.13H124.73a35.39,35.39,0,0,0-35.39,35.39V252.68a9.47,9.47,0,0,0,9.47,9.47H161a9.47,9.47,0,0,0,9.47-9.47V105.52A35.38,35.38,0,0,0,135,70.13Z"/><path class="cls-2" d="M151.71,7.12C143,1,132.34,1.45,130.92,1.55h-1.35c-1.43-.1-12.1-.6-20.79,5.57-7.28,5.17-11,13.4-11,24.47a2.18,2.18,0,0,0,2.38,1.88h5.06V46.75h49.27V33.47h5.78a2.17,2.17,0,0,0,2.37-1.88C162.67,20.52,159,12.29,151.71,7.12Zm2.81,22.59V27.76c0-6.71-6.29-12.15-14.05-12.15H119.3c-7.76,0-14,5.44-14,12.15v1.95H102.6c.37-9,3.5-15.61,9.3-19.76,7.52-5.37,17.2-4.66,17.3-4.65h2.08c.1,0,9.79-.72,17.31,4.65,5.8,4.15,8.92,10.79,9.3,19.76Z"/><path class="cls-3" d="M105.52,164l1.83-15.79c0-2.34-1.9-3-4.25-3H21.85c-2.35,0-4.26.63-4.26,3L30.36,257.91a4.24,4.24,0,0,0,4.25,4.24H90.33a4.25,4.25,0,0,0,4.26-4.24l4.83-41.53c6.41-.18,16.79-1.65,23.63-8.63,4.45-4.54,6.61-10.51,6.43-17.74A26.47,26.47,0,0,0,105.52,164Zm10.22,36.66c-3.07,3.14-8.51,5.09-15.13,5.5l3.73-32.05a16.33,16.33,0,0,1,14.93,16.16C119.39,194.71,118.23,198.11,115.74,200.65Z"/><path class="cls-4" d="M184,258.78a3.4,3.4,0,0,0,3.17,3.37H302.45a3.41,3.41,0,0,0,3.17-3.37l6.86-97.28H177.09Z"/><polygon class="cls-5" points="190.12 255.83 299.46 255.83 305.98 161.25 183.21 160.41 190.12 255.83"/><rect class="cls-4" x="171.29" y="160.81" width="145.61" height="4.13" rx="1.92"/><path class="cls-6" d="M244.19,159.44H191.08c0,9.69,28.79,17.65,53.11,18.49v0l.6,0,.59,0v0c24.33-.84,53.12-8.8,53.12-18.49H244.19Z"/><path class="cls-6" d="M307.53,150.72H182A10.08,10.08,0,0,0,172,160.77v.55H317.59v-.55A10.08,10.08,0,0,0,307.53,150.72Z"/><circle class="cls-1" cx="34" cy="253.16" r="32.5"/><path class="cls-4" d="M48,241.73,30.36,259.32,20,249a2.51,2.51,0,0,0-3.52,0,2.46,2.46,0,0,0,0,3.51l12.14,12.1a2.52,2.52,0,0,0,3.53,0l19.43-19.35a2.46,2.46,0,0,0,0-3.51A2.49,2.49,0,0,0,48,241.73Z"/></g></svg>