<svg xmlns="http://www.w3.org/2000/svg" viewBox="0 0 321.44 230.71"><defs><style>.cls-1,.cls-8{fill:#fff;}.cls-1,.cls-3{stroke:#9b3a2a;}.cls-1,.cls-2,.cls-3,.cls-4,.cls-5,.cls-6{stroke-linecap:round;stroke-linejoin:round;}.cls-1,.cls-2,.cls-3,.cls-4,.cls-5,.cls-6,.cls-7{stroke-width:3px;}.cls-2{fill:#28789d;}.cls-2,.cls-4,.cls-5,.cls-6{stroke:#184251;}.cls-3{fill:#ffb312;}.cls-4{fill:#f3f4f5;}.cls-5{fill:#dadee0;}.cls-6{fill:#8fceed;}.cls-7{fill:#d85c36;stroke:#61271b;stroke-miterlimit:10;}</style></defs><g id="Layer_2" data-name="Layer 2"><rect class="cls-1" x="34" y="196.71" width="57.2" height="8.99"/><polygon class="cls-2" points="69.44 149.18 79.22 150.2 94.82 1.5 84.93 1.5 69.44 149.18"/><polygon class="cls-3" points="34.45 197.07 90.75 197.07 102.27 70.44 22.93 70.44 34.45 197.07"/><rect class="cls-1" x="19.94" y="68.28" width="85.33" height="7.58" rx="3.79"/><line class="cls-1" x1="34" y1="96.67" x2="91.2" y2="96.67"/><line class="cls-1" x1="37.87" y1="115.21" x2="87.33" y2="115.21"/><line class="cls-1" x1="43.88" y1="133.55" x2="81.32" y2="133.55"/><ellipse class="cls-4" cx="218.99" cy="105.19" rx="100.94" ry="100.51"/><ellipse class="cls-5" cx="218.99" cy="105.19" rx="72.35" ry="72.03"/><path class="cls-6" d="M258.75,53.23a11.16,11.16,0,0,0-4-.7,10.91,10.91,0,0,0-8.48,4.32c-3.38,4.33-6.79,7.24-9.85,20.56-2.45,10.63-.21,15,1.43,16.37s7.37,6.16,6.7,10S231.4,163.47,231.06,166c-.12,1-.23,2-.33,3h-.11L229,184.81a4.21,4.21,0,0,0,2.73,4.69,3.87,3.87,0,0,0,.79.39h0a3.85,3.85,0,0,0,1.12-.17,4.23,4.23,0,0,0,3.69-3.45l2.92-11.6c.69-2.33,1.33-4.65,1.79-6.72.57-2.52,8.06-59.29,8.73-63.1s7.71-6.33,9.73-7.1,5.8-3.48,7-14.89c1.39-13.6-.59-17.43-2.19-22.68A10.27,10.27,0,0,0,258.75,53.23Z"/><path class="cls-6" d="M213.23,154.44c-.14-2.42-.34-4.83-.61-6.92s-8.43-38.81-11.93-55c.92-2.44,5.16-5,6.06-14.71,1-11.17-13.85-47-18-50.79a5.42,5.42,0,0,0-3.33-1.64c-1.81-.07-3.93,1.74-3.59,3.51l12.26,65.2c2.28,16.57,7.16,53.29,7.62,55.31.21.94.45,1.93.73,2.95l-.11,0,3.85,15.38a4.2,4.2,0,0,0,4.17,3.47,3.3,3.3,0,0,0,.88.1h0a3.46,3.46,0,0,0,1-.54,4.21,4.21,0,0,0,2.28-4.49Z"/><circle class="cls-7" cx="34" cy="196.71" r="32.5"/><path class="cls-8" d="M22.88,182.09a2.52,2.52,0,0,0-3.56,0,2.49,2.49,0,0,0,0,3.55l25.8,25.69a2.51,2.51,0,0,0,3.56-3.55Z"/><path class="cls-8" d="M45.12,182.09l-25.8,25.69a2.51,2.51,0,0,0,3.56,3.55l25.8-25.69a2.49,2.49,0,0,0,0-3.55A2.52,2.52,0,0,0,45.12,182.09Z"/></g></svg>