<svg xmlns="http://www.w3.org/2000/svg" viewBox="0 0 518.44 557.15"><defs><style>.cls-1,.cls-5{fill:#74ebff;}.cls-1,.cls-13,.cls-2,.cls-7,.cls-9{stroke:#2c4562;}.cls-1,.cls-10,.cls-11,.cls-13,.cls-14,.cls-15,.cls-16,.cls-17,.cls-2,.cls-6,.cls-7,.cls-9{stroke-miterlimit:10;}.cls-1,.cls-13,.cls-16,.cls-17,.cls-2,.cls-6,.cls-7{stroke-width:3.37px;}.cls-2{fill:#c6fff9;}.cls-3{fill:#9ffdff;}.cls-13,.cls-4{fill:#00d8ff;}.cls-10,.cls-11,.cls-14,.cls-15,.cls-16,.cls-6,.cls-7,.cls-9{fill:none;}.cls-6{stroke:#fff;}.cls-8{fill:#fff;}.cls-9{stroke-width:16.85px;}.cls-10{stroke:#425f76;stroke-width:10.11px;}.cls-11{stroke:#00d8ff;stroke-width:13.48px;}.cls-11,.cls-14,.cls-15,.cls-16{stroke-linecap:round;}.cls-12{fill:#425f76;}.cls-14,.cls-16,.cls-17{stroke:#6434a4;}.cls-14{stroke-width:33.71px;}.cls-15{stroke:#c12790;stroke-width:26.97px;}.cls-17{fill:#f765af;}.cls-18{fill:#2c4562;}.cls-19{fill:#221e1f;}</style></defs><g id="Layer_2" data-name="Layer 2"><polygon class="cls-1" points="193.5 466.27 174.54 555.46 244.7 555.46 239.56 466.27 193.5 466.27"/><polygon class="cls-1" points="291.66 466.27 285.14 555.46 355.3 555.46 355.3 537.62 342.46 466.27 291.66 466.27"/><polygon class="cls-2" points="2.7 1.89 516.43 48.27 442.7 434.76 110.92 434.76 2.7 1.89"/><polygon class="cls-3" points="448.06 221.3 412.38 88.11 515.84 48.87 484.92 214.16 448.06 221.3"/><polygon class="cls-4" points="448.06 221.3 386.22 432.97 442.11 435.35 484.92 214.16 448.06 221.3"/><polygon class="cls-5" points="60.38 233.19 100.81 60.76 412.38 88.11 448.06 221.3 402.87 375.89 406.43 435.35 111.51 435.35 60.38 233.19"/><polyline class="cls-6" points="2.11 2.49 100.81 60.76 412.38 88.11"/><line class="cls-6" x1="60.38" y1="233.19" x2="100.81" y2="60.76"/><line class="cls-7" x1="484.86" y1="213.77" x2="448.06" y2="221.3"/><polygon class="cls-8" points="155.51 208.22 241.14 204.65 236.38 293.84 155.51 296.22 155.51 208.22"/><polygon class="cls-9" points="155.51 208.22 241.14 204.65 236.38 293.84 155.51 296.22 155.51 208.22"/><polygon class="cls-8" points="275.62 204.65 355.3 201.08 358.87 289.08 274.43 293.84 275.62 204.65"/><polygon class="cls-9" points="275.62 204.65 355.3 201.08 358.87 289.08 274.43 293.84 275.62 204.65"/><polygon class="cls-9" points="155.51 208.22 241.14 204.65 236.38 293.84 155.51 296.22 155.51 208.22"/><polygon class="cls-10" points="155.51 208.22 241.14 204.65 236.38 293.84 155.51 296.22 155.51 208.22"/><polygon class="cls-9" points="275.62 204.65 355.3 201.08 358.87 289.08 274.43 293.84 275.62 204.65"/><polygon class="cls-10" points="275.62 204.65 355.3 201.08 358.87 289.08 274.43 293.84 275.62 204.65"/><path class="cls-11" d="M196.08,165.73a20.93,20.93,0,0,1,14-6.23,21.27,21.27,0,0,1,16.24,6.88"/><path class="cls-11" d="M286.46,165.73a20.93,20.93,0,0,1,14-6.23,21.27,21.27,0,0,1,16.24,6.88"/><polygon class="cls-7" points="2.7 1.89 516.43 48.27 442.7 434.76 110.92 434.76 2.7 1.89"/><polyline class="cls-5" points="41.35 306.92 34.22 277.19 55.62 274.81 75.84 375.89 134.11 378.27 135.3 415.14 44.92 421.08 20.06 355.69"/><path class="cls-1" d="M54.43,315.24l-19-11.89-9.52,15.46,20.22,10.7s-4.76,5.95-2.38,13.09a10.4,10.4,0,0,0,9.51,7.13"/><path class="cls-1" d="M33.62,306.26s-16,7.79-24.38,13.74-10.7,11.89-2.37,25,9.34,15.46,38,0"/><path class="cls-1" d="M16.61,315.32s2.15,14.19,6.9,23.71S31.12,352,31.12,352"/><polyline class="cls-7" points="134.11 378.27 75.84 375.89 55.62 274.81 34.22 277.19 41.35 306.92"/><path class="cls-7" d="M54.43,315.24l-19-11.89-9.52,15.46,20.22,10.7s-4.76,5.95-2.38,13.09a10.4,10.4,0,0,0,9.51,7.13"/><path class="cls-7" d="M33.62,306.26s-16,7.79-24.38,13.74-10.7,11.89-2.37,25,9.34,15.46,38,0"/><path class="cls-7" d="M16.61,315.32s2.15,14.19,6.9,23.71S31.12,352,31.12,352"/><polyline class="cls-7" points="20.06 355.69 44.92 421.08 135.3 415.14"/><polygon class="cls-4" points="154.92 434.76 178.11 466.27 285.29 466.27 298.03 434.76 154.92 434.76"/><polygon class="cls-12" points="298.03 434.76 285.29 466.27 364.81 466.27 400.49 434.76 298.03 434.76"/><polygon class="cls-7" points="154.92 434.76 178.11 466.27 364.81 466.27 400.49 434.76 154.92 434.76"/><line class="cls-7" x1="285.29" y1="466.27" x2="298.03" y2="434.76"/><polygon class="cls-5" points="430.22 493.62 408.81 478.16 402.87 375.89 361.25 378.27 357.68 486.49 361.75 492.93 361.75 492.93 368.38 526.92 380.39 522.44 386.22 531.68 400.49 519.78 410 525.73 419.45 507.37 419.45 507.37 421.89 509.08 430.22 493.62"/><polyline class="cls-7" points="419.45 507.37 410 525.73 400.49 519.78"/><polyline class="cls-7" points="361.75 492.93 368.38 526.92 380.39 522.44"/><polyline class="cls-7" points="398.11 492.43 421.89 509.08 430.22 493.62 408.81 478.16 402.87 375.89 448.06 221.3 412.38 88.11 515.84 48.87"/><polyline class="cls-7" points="361.25 378.27 357.68 486.49 386.22 531.68 400.49 519.78 383.84 503.14"/><polygon class="cls-13" points="178.08 538.81 205.46 540 242.33 514.36 244.7 555.46 174.54 555.46 178.08 538.81"/><polygon class="cls-13" points="287.66 520.96 312.49 540 355.3 537.62 355.3 555.46 285.14 555.46 287.66 520.96"/><line class="cls-7" x1="312.49" y1="540" x2="310.77" y2="555.46"/><line class="cls-7" x1="213.43" y1="555.46" x2="205.46" y2="540"/><path class="cls-14" d="M218.08,340.72c55.58,7.78,74.71-10.79,74.71-10.79"/><path class="cls-15" d="M218.08,340.72c55.58,7.78,74.71-10.79,74.71-10.79"/><path class="cls-16" d="M215.7,341.91c55.58,7.78,74.71-10.79,74.71-10.79"/><path class="cls-16" d="M297.62,333.68a9.51,9.51,0,0,1-9.51-9.52"/><rect class="cls-12" x="241.14" y="233.19" width="33.3" height="22.59"/><rect class="cls-17" x="244.7" y="245.08" width="23.78" height="34.49" rx="7.06"/><polygon class="cls-18" points="270.17 234.88 244.11 234.97 245.3 223.08 248.87 215.95 248.53 231.5 266.94 231.5 266.94 229.03 270.17 229.03 270.17 234.88"/><circle class="cls-19" cx="184.65" cy="234.97" r="14.27"/><circle class="cls-19" cx="303.57" cy="231.41" r="14.27"/></g></svg>