<svg xmlns="http://www.w3.org/2000/svg" xmlns:xlink="http://www.w3.org/1999/xlink" viewBox="0 0 432.48 455.35"><defs><style>.cls-1,.cls-13,.cls-6{fill:#71e0fb;}.cls-1,.cls-13,.cls-2,.cls-20,.cls-3,.cls-4,.cls-5{stroke:#37526d;}.cls-1,.cls-11,.cls-13,.cls-14,.cls-15,.cls-19,.cls-2,.cls-20,.cls-3,.cls-4,.cls-5{stroke-miterlimit:10;stroke-width:3.13px;}.cls-2{fill:#37cbe7;}.cls-19,.cls-20,.cls-3{fill:none;}.cls-4{fill:#1db1cd;}.cls-5{fill:#425f76;}.cls-7{fill:#c3fffb;}.cls-8{fill:#86f5fc;}.cls-9{fill:url(#radial-gradient);}.cls-10{fill:url(#radial-gradient-2);}.cls-11{fill:#e8f1fa;}.cls-11,.cls-14{stroke:#26384f;}.cls-11,.cls-13,.cls-14,.cls-19,.cls-20{stroke-linecap:round;}.cls-12{fill:#221e1f;}.cls-14{fill:#3e637d;}.cls-15,.cls-17{fill:#dc5596;}.cls-15,.cls-19{stroke:#5d3389;}.cls-16{fill:#25b2d0;}.cls-18{fill:#5d3389;}</style><radialGradient id="radial-gradient" cx="18.99" cy="-264.27" fx="-60.61626921515274" fy="-319.5941893451167" r="158.47" gradientTransform="translate(142.58 335.83) rotate(5.1)" gradientUnits="userSpaceOnUse"><stop offset="0" stop-color="#fff"/><stop offset="0.19" stop-color="#fcffff"/><stop offset="0.33" stop-color="#f3feff"/><stop offset="0.46" stop-color="#e3fcff"/><stop offset="0.57" stop-color="#ccf9ff"/><stop offset="0.68" stop-color="#aff5ff"/><stop offset="0.79" stop-color="#8bf1ff"/><stop offset="0.89" stop-color="#61ecff"/><stop offset="0.92" stop-color="#4feaff"/></radialGradient><radialGradient id="radial-gradient-2" cx="187.38" cy="-259.89" r="139.51" gradientTransform="translate(142.58 335.83) rotate(5.1)" gradientUnits="userSpaceOnUse"><stop offset="0" stop-color="#4feaff"/><stop offset="0.14" stop-color="#4ee6fb"/><stop offset="0.26" stop-color="#4ddbf1"/><stop offset="0.39" stop-color="#4ac8de"/><stop offset="0.51" stop-color="#45aec5"/><stop offset="0.63" stop-color="#408ba4"/><stop offset="0.75" stop-color="#3a627c"/><stop offset="0.79" stop-color="#37526d"/></radialGradient></defs><g id="Layer_2" data-name="Layer 2"><path class="cls-1" d="M285.4,368.66l17.5,60.49,1.32,11-51.91,6.24-3.4-73.32C247.34,345,279.18,342,285.4,368.66Z"/><polygon class="cls-2" points="310.89 453.5 303.11 430.87 301.56 430.51 273.38 433.9 251.11 420.41 252.31 446.37 310.89 453.5"/><line class="cls-2" x1="272.79" y1="433.98" x2="271.3" y2="447.06"/><path class="cls-1" d="M208.61,365.18l-6.36,80.44-50.67-6.77-.28-10.19,26.9-72.21C182.5,340.05,210.47,341.71,208.61,365.18Z"/><polygon class="cls-2" points="204.47 414.63 173.43 431.49 151.42 427.93 144.91 445.63 202.27 445.47 204.47 414.63"/><line class="cls-3" x1="173.43" y1="431.49" x2="177.93" y2="444.39"/><path class="cls-4" d="M163.67,370.06l133.14,4.85L299,315.19c11.93-60.66-191.39-48.62-177.83-6.47Z"/><path class="cls-5" d="M246.77,373.09l23.42-58.95c29.5-40.74,71.47-31.66,59.22,2.16l-24.47,58.9Z"/><polygon class="cls-6" points="45.32 1.94 99.07 335.65 348.2 357.37 430.5 72.15 45.32 1.94"/><path class="cls-7" d="M49.89,4.17,116.3,51.92,349.74,95,429,72.59a.17.17,0,0,0,0-.33L50.15,3.55A.34.34,0,0,0,49.89,4.17Z"/><path class="cls-8" d="M47.52,3.24,116.3,51.92,74.4,182,45.88,4.27A1.05,1.05,0,0,1,47.52,3.24Z"/><path class="cls-9" d="M350,93.68l-233.13-43L48.15,2.17c-.79-.56-1.1,1.91-1.1,1.91a.29.29,0,0,1-.13.29.3.3,0,0,1-.33,0l68,48.1L73,181.57l2.56.83L117.06,53.48,349.48,96.33Z"/><polygon class="cls-8" points="430.28 73.04 350.38 94.41 367.92 197.06 394.48 195.23 430.28 73.04"/><polygon class="cls-10" points="365.53 197.19 347.79 93.33 428.87 71.65 429.56 74.25 350.85 95.3 368.18 196.74 365.53 197.19"/><polygon class="cls-4" points="366.97 197.58 306.14 353.7 347.89 357.56 394.83 195.26 366.97 197.58"/><polygon class="cls-3" points="45.32 1.93 99.07 335.65 348.2 357.37 430.5 72.15 45.32 1.93"/><rect class="cls-11" x="232.28" y="176.72" width="64.8" height="64.8" transform="translate(19.64 -22.7) rotate(5.1)"/><rect class="cls-12" x="253.48" y="190.41" width="20.25" height="23.79" rx="10.12" transform="translate(19.03 -22.64) rotate(5.1)"/><rect class="cls-11" x="143.16" y="169.97" width="64.8" height="64.8" transform="translate(18.69 -14.81) rotate(5.1)"/><rect class="cls-12" x="173.58" y="186.95" width="20.25" height="23.79" rx="10.12" transform="translate(18.41 -15.54) rotate(5.1)"/><polygon class="cls-13" points="145.85 188.98 209.06 191.5 210.71 172.98 146.17 167.22 145.85 188.98"/><polygon class="cls-13" points="234.81 192.47 298.02 194.99 299.67 176.48 235.13 170.72 234.81 192.47"/><path class="cls-14" d="M300.37,248.47l3.74-77.73-71.22-3.67-3.68,31.24a44.73,44.73,0,0,0-14.77-1.08l4.8-31.86-78-3.2-6.9,77.23,73.07,4.32,5.33-35.43a33.71,33.71,0,0,1,15.16.8l-4.31,36.52Zm-102.1-16.06-52.19-3.09,5-56,55.73,2.29Zm44.12-54.08,50.46,2.6-2.71,56.4-54.46-2Z"/><rect class="cls-15" x="211.24" y="203.68" width="17.01" height="23.39" rx="8.5" transform="translate(20.02 -18.68) rotate(5.1)"/><path class="cls-16" d="M255.43,133.35a5.23,5.23,0,0,1,1-9.07c4.54-1.91,11-.74,16.54,3s8.7,9.16,8.61,14.8a5.23,5.23,0,1,1-10.46-.16c0-2-1.47-4.25-4-6-3.11-2.1-6-2.28-6.63-2A5.21,5.21,0,0,1,255.43,133.35Z"/><path class="cls-16" d="M174.27,137.16a5.23,5.23,0,0,1-7.14-5.67c.79-4.87,5.22-9.76,11.29-12.46s12.37-2.53,17.11.54a5.23,5.23,0,1,1-5.68,8.78c-1.69-1.1-4.38-1-7.19.24-3.43,1.52-5.09,3.85-5.2,4.56A5.23,5.23,0,0,1,174.27,137.16Z"/><path class="cls-17" d="M224.05,283.61c-3,0-6.19-.13-9.64-.41a256.2,256.2,0,0,1-25.74-3.7,11.86,11.86,0,0,1-9.47-13.84A11.84,11.84,0,0,1,190.84,256a11.51,11.51,0,0,1,2.19.2c6.43,1.2,19.81,3.71,31.07,3.71,8.73,0,14.49-1.46,17.12-4.32a11.86,11.86,0,1,1,17.48,16c-7.06,7.68-17.6,11.6-32.23,12C225.68,283.6,224.87,283.61,224.05,283.61Z"/><path class="cls-18" d="M250,253.3a10.29,10.29,0,0,1,7.58,17.25c-6.75,7.36-16.92,11.11-31.11,11.47-.78,0-1.57,0-2.38,0-3,0-6.1-.13-9.52-.41A251.21,251.21,0,0,1,189,278a10.29,10.29,0,1,1,3.79-20.23c6.7,1.25,19.95,3.73,31.36,3.73,7.91,0,14.94-1.19,18.27-4.83A10.28,10.28,0,0,1,250,253.3m0-3.13h0a13.46,13.46,0,0,0-9.89,4.35c-1.6,1.74-5.66,3.81-16,3.81-11.12,0-24.4-2.48-30.78-3.68a13.79,13.79,0,0,0-2.48-.23A13.43,13.43,0,0,0,188.38,281a256.79,256.79,0,0,0,25.9,3.72c3.5.28,6.69.42,9.77.42.84,0,1.65,0,2.46,0,15.08-.39,26-4.47,33.34-12.49A13.42,13.42,0,0,0,250,250.17Z"/><path class="cls-19" d="M247.77,265.05c-6.46,9.14-32,7.54-57.67,2.73"/><path class="cls-19" d="M246.36,261.54a5.4,5.4,0,0,0,4.95,4.94"/><path class="cls-6" d="M352.09,310.52l-28.28-14c-12-7.42-25.72,24.52-14.13,31.67l27.64,13.45C351.61,345.48,364.14,318.42,352.09,310.52Z"/><line class="cls-20" x1="306.82" y1="325.89" x2="336.91" y2="342.62"/><path class="cls-6" d="M334.88,369.71s44.2-39.13,47.12-45.37c-9.06-5.16-25.62-14-29.24-15-7.42,4.13-6.62,10.26-4.87,13.75l-31.08,17.31C305.82,350.26,321.69,375.52,334.88,369.71Z"/><line class="cls-20" x1="346.66" y1="323.38" x2="309.8" y2="346.22"/><path class="cls-20" d="M335.66,370.86l12.8-10.35,31.71-34.19a2,2,0,0,0-.6-3.14L320,294.59"/><path class="cls-6" d="M347.29,358.68l-1.89-7.3c2.82-14.38-28.59-11-35.68-2.36l-2.83,5.79a.22.22,0,0,0,.16.29l5,20.55,30.25.51Z"/><path class="cls-13" d="M309.8,346.22l-2.91,8.59a.22.22,0,0,0,.16.29l-4.15,18c2.05,5.22,5.73,12.63,12.66,16.38,11.86-1.57,25.57-7.3,35.5-14.17L351,362.94l-3.79-1.39"/><path class="cls-20" d="M317.74,376.76a34.65,34.65,0,0,0,8.35,10.37"/><path class="cls-20" d="M331.26,371.81a44.41,44.41,0,0,0,7.84,9.77"/><path class="cls-20" d="M344.33,370a42,42,0,0,1-1.19-5.34c4-2.85,5.66-7.16,3.79-12.85"/><path class="cls-13" d="M95.17,284,41,255.24,5.09,177.32l27-17.26a59.13,59.13,0,0,1-9.24-23.39c4.73-2.75,12.07-4.63,16.72-5L67.73,222.8,95.6,243.71"/><path class="cls-13" d="M13.68,167.53a42,42,0,0,0-12,12.37c1.21,5.42,7.64,17.72,14.66,22.18a26.4,26.4,0,0,0,13.46-8.7Z"/><path class="cls-13" d="M24.93,159.64,11.61,169c1.87,7.62,8.92,19.53,15.66,26.64a26.36,26.36,0,0,0,13.46-8.69Z"/><path class="cls-13" d="M41.67,162.6l-15.89-5.16L21.15,171.2l16.35,5.73c-3.13,5.48,3.63,14.77,7.62,13.88"/></g></svg>