<svg xmlns="http://www.w3.org/2000/svg" viewBox="0 0 216.95 267.17"><defs><style>.cls-1{fill:#61271b;}.cls-2{fill:#d85c36;}.cls-2,.cls-5,.cls-6{stroke:#61271b;}.cls-2,.cls-7{stroke-miterlimit:10;}.cls-2,.cls-4,.cls-5,.cls-6,.cls-7{stroke-width:3px;}.cls-3{fill:#9b3a2a;}.cls-4{fill:#ffb312;stroke:#9b3a2a;}.cls-4,.cls-5,.cls-6{stroke-linecap:round;stroke-linejoin:round;}.cls-5{fill:#bf8b79;}.cls-6{fill:#694434;}.cls-7{fill:#649d42;stroke:#3c6620;}.cls-8{fill:#fff;}</style></defs><g id="Layer_2" data-name="Layer 2"><path class="cls-1" d="M76,.53A2.29,2.29,0,0,0,73.05,4c9.24,7.69,6.75,21.36,6.73,21.5A2.28,2.28,0,0,0,81.6,28.2a2.31,2.31,0,0,0,.83,0,2.27,2.27,0,0,0,1.84-1.81C84.4,25.72,87.27,9.93,76,.53Z"/><path class="cls-2" d="M90.5,6.68c-3,.52-5.44,2.51-7.25,5.46-.42.54-2.51,4.09-2.51,4.09s-2.82-1.89-4.4-2.83c-2.73-2.16-5.75-3.17-8.72-2.64-7.79,1.39-15.44,7.73-13.15,20.49S72.35,57.08,80.14,55.69a7.17,7.17,0,0,0,4.45-2.53l.06.06a5.15,5.15,0,0,1,4.82-.86,7.21,7.21,0,0,0,5,.78c7.79-1.39,17.84-19,15.54-31.8S98.29,5.29,90.5,6.68Z"/><path class="cls-3" d="M133.31.31a2.8,2.8,0,0,0-1.21,3.78c6.78,13.09-2.58,27.39-2.67,27.53a2.8,2.8,0,0,0,.78,3.89,3.21,3.21,0,0,0,.94.4,2.82,2.82,0,0,0,3-1.19c.46-.69,11.27-17.21,3-33.2A2.82,2.82,0,0,0,133.31.31Z"/><path class="cls-4" d="M147.55,15.18c-2.94-.65-6,.22-8.81,2.24-.6.33-3.91,2.8-3.91,2.8s-1.86-2.83-3-4.3c-1.68-3.05-4.07-5.15-7-5.81-7.73-1.72-17.25,1.17-20.1,13.81s6.41,30.72,14.14,32.45a7.25,7.25,0,0,0,5.09-.62l0,.08a5.17,5.17,0,0,1,4.78,1.06,7.11,7.11,0,0,0,4.26,2.64c7.73,1.73,23.86-10.66,26.71-23.31S155.27,16.91,147.55,15.18Z"/><polygon class="cls-5" points="158.95 34.94 150.33 46.27 141.71 34.94 133.09 46.27 124.47 34.94 115.85 46.27 107.23 34.94 98.61 46.27 90 34.94 81.38 46.27 72.76 34.94 64.14 46.27 55.52 34.94 46.9 46.27 38.28 34.94 38.28 241.6 176.19 241.6 176.19 34.94 167.57 46.27 158.95 34.94"/><rect class="cls-2" x="98.85" y="145.18" width="116.33" height="96.98"/><path class="cls-6" d="M110.31,113.19,98.59,146.58H215.45l-11.72-33.39Zm73.58,24.09H130.15a7.25,7.25,0,1,1,0-14.49h53.74a7.25,7.25,0,1,1,0,14.49Z"/><circle class="cls-7" cx="34" cy="233.17" r="32.5"/><path class="cls-8" d="M48,221.74,30.36,239.33,20,229a2.49,2.49,0,0,0-3.52,0,2.46,2.46,0,0,0,0,3.51l12.14,12.1a2.52,2.52,0,0,0,3.53,0l19.43-19.35a2.46,2.46,0,0,0,0-3.51A2.49,2.49,0,0,0,48,221.74Z"/></g></svg>