<svg xmlns="http://www.w3.org/2000/svg" viewBox="0 0 199.24 212.06"><defs><style>.cls-1{fill:#8fceed;stroke-miterlimit:10;}.cls-1,.cls-2,.cls-3{stroke:#184251;stroke-width:3px;}.cls-2{fill:#f3f4f5;}.cls-2,.cls-3{stroke-linecap:round;stroke-linejoin:round;}.cls-3{fill:#ffbd27;}</style></defs><g id="Layer_2" data-name="Layer 2"><path class="cls-1" d="M35.68,159.27s-.62-.68-.88-.94c-6.54-7-9.81-13.63-11.32-21a1.07,1.07,0,0,0-.67-.77l-.06,0a1,1,0,0,0-1.31.88c-.87,6.69-4.93,13.29-12.08,19.32a18.93,18.93,0,0,0-5.94,23.56c4.62,9.26,16.17,12.78,25.74,8s13.7-15.95,9.08-25.21A18.82,18.82,0,0,0,35.68,159.27Z"/><path class="cls-2" d="M109.39,12.67v8.07l20.49,10.57a19.21,19.21,0,0,0,5,9.6h4.85V52.34h17.48V40.91h4.18a19.27,19.27,0,0,0,5-9.46l20.29-10.71V12.67Z"/><circle class="cls-3" cx="113.23" cy="16.14" r="14.64"/><circle class="cls-3" cx="183.1" cy="16.14" r="14.64"/><path class="cls-2" d="M175,194.65H121.61V59a12,12,0,0,1,12-12H163a12,12,0,0,1,12,12Z"/><rect class="cls-3" x="9.38" y="112.29" width="45.05" height="13.45"/><path class="cls-2" d="M116.9,128.09,9.38,112.29v-1.68A34.62,34.62,0,0,1,44,76l72.9-2.35Z"/><ellipse class="cls-2" cx="148.17" cy="100.86" rx="45.55" ry="47.58"/><path class="cls-3" d="M183.91,210.56H112.65v-6.72a9.18,9.18,0,0,1,9.19-9.19h52.88a9.19,9.19,0,0,1,9.19,9.19Z"/><circle class="cls-3" cx="148.17" cy="16.14" r="14.64"/></g></svg>