<svg xmlns="http://www.w3.org/2000/svg" viewBox="0 0 251.54 532.37"><defs><style>.cls-1{fill:#af7059;}.cls-1,.cls-2,.cls-4,.cls-5{stroke:#61271b;}.cls-1,.cls-2,.cls-4,.cls-5,.cls-6,.cls-7,.cls-8{stroke-linecap:round;stroke-linejoin:round;stroke-width:3px;}.cls-2{fill:#694434;}.cls-3{fill:#61271b;}.cls-4{fill:#d85c36;}.cls-5{fill:#ffb312;}.cls-6{fill:#dadee0;}.cls-6,.cls-7,.cls-8{stroke:#184251;}.cls-7{fill:#184251;}.cls-8{fill:#8fceed;}.cls-9{fill:#fff;}</style></defs><g id="Layer_2" data-name="Layer 2"><path class="cls-1" d="M124.92,264.43H16.63L42.89,489a35.28,35.28,0,0,0,35,31.18h95.68a35.28,35.28,0,0,0,35-31.18l26.26-224.55Z"/><rect class="cls-1" x="1.5" y="242.71" width="248.54" height="27.87" rx="13.61"/><rect class="cls-2" x="22.23" y="466.36" width="25.8" height="64.51" rx="12.6"/><rect class="cls-2" x="203.51" y="466.36" width="25.8" height="64.51" rx="12.6"/><path class="cls-3" d="M103.51,151.74a2.29,2.29,0,0,0-1.69,4.25C113,160.42,115,174.22,115,174.36a2.28,2.28,0,0,0,2.57,2,2.36,2.36,0,0,0,.79-.25,2.31,2.31,0,0,0,1.18-2.31C119.43,173.09,117.18,157.15,103.51,151.74Z"/><path class="cls-4" d="M148.55,202.14c-9.11-9.88-18.36-24.27-14.27-37.81a28.44,28.44,0,0,1,2.62-12.7,29.41,29.41,0,0,0-8.05,3c-4.24,2.3-7,6.57-8.27,12v0a8.28,8.28,0,0,1-9.65,5.4l-.22-.05c-5.25-1.92-8.94-2.81-13.19-.52-1.69.92-4.79,4.63-4.49,8.29,15,2.13,24.88,10,32.35,22.71,5.8,9.9,4.87,21.57,6.47,33.07.42-.16,5.61-.67,6-.87a11.47,11.47,0,0,0,5.49-6.11l.13.07a8.19,8.19,0,0,1,6.89-3.74,11.53,11.53,0,0,0,7.95-1.3c1.55-.83,4.59-3.9,7.33-7.17C159,212.57,152.94,206.9,148.55,202.14Z"/><path class="cls-5" d="M145.21,198.3c-3.82-4.75-7.19-8.94-9.46-15.38A40.4,40.4,0,0,1,133.53,168a7.89,7.89,0,0,1-.81.44,10.06,10.06,0,0,1-4.21,1,11,11,0,0,1-6,9.27,10.25,10.25,0,0,1-4.56,1,10.94,10.94,0,0,1-11.84.62c-.37.16-.78.31-1.2.45a16.88,16.88,0,0,1-3.57.8,41.1,41.1,0,0,1,14.8,8.64,44.32,44.32,0,0,1,8.14,10.34A52.51,52.51,0,0,1,131,227a11.69,11.69,0,0,1,5-4.85,10.78,10.78,0,0,1,2.36-.8,10.85,10.85,0,0,1,5.25-5.78,10.27,10.27,0,0,1,5.45-1,10.39,10.39,0,0,1,4.1-3.6,9.9,9.9,0,0,1,1.17-.48,11,11,0,0,1,2.3-.52A84.21,84.21,0,0,1,145.21,198.3Z"/><path class="cls-6" d="M207.14,147.35l-17.93-1.42L178.57,155l-2.81,35.62,37.64,3L216.22,158Z"/><path class="cls-1" d="M192.32,170.66a12.74,12.74,0,0,1-1.41-.12c-.48,0-.82-.1-1.06-.15s-.48.13-.88.22c-1.88.41-3.76.85-5.64,1.28l-1,13.11,25.52,2,1-12.23a88.26,88.26,0,0,1-14.7-3.5A16,16,0,0,1,192.32,170.66Z"/><path class="cls-7" d="M185.61,106.7c-.89-.59-1.81-1.21-2.76-1.88-5.22-3.63-11-8.07-13.95-14.79-2.7-6.21-1.83-15.4,3.33-17.94l-1-2.1c-6.39,3.15-7.62,13.67-4.44,21s9.28,12,14.76,15.78c1,.68,1.9,1.3,2.8,1.9,4.23,2.83,7.57,5.07,10.61,10,5.08,8.32,6.33,16.63,4,27.13-.34,1.5,1.83,2.45,2.16,1.06,2.65-11.3,1.33-20.51-4.11-29.41C193.62,112.05,189.91,109.57,185.61,106.7Z"/><polygon class="cls-1" points="162.49 70.29 176.6 79.15 187.13 62.42 173.02 53.56 162.49 70.29"/><path class="cls-6" d="M53.08,2.07a3,3,0,0,1-.48-.17C48.5,11.06,35.14,41,33.44,45.26c-2,5.05-6.78,9.63-5.73,20.76l3.15,31.45a12.32,12.32,0,0,0,9.69,12.34l58.77,14.83a12.33,12.33,0,0,0,14.39-6.26l17.74-26.17c6.22-9.29,4.19-15.6,4.83-21,.54-4.54,3-37.12,3.78-47.19,0,0-15.13-1.29-44.2-8.63C69.51,8.75,53.08,2.07,53.08,2.07Z"/><path class="cls-8" d="M53,1.56l-.18-.06v0c-3.9,8.71-17.61,39.41-19.33,43.73-.15.4-3.52,7.6-3.71,8,0,0,21.45-3.39,54.52,4.38,32,8.87,51.67,22.43,51.67,22.43,0-.44.48-8.37.54-8.79.54-4.62,3.08-38.14,3.8-47.65v0s-14.48-.39-44.46-8S53,1.56,53,1.56Z"/><path class="cls-8" d="M41.62,61.57,40.71,97.7s1.44,5.14,5.36-.11,13.08-21.22,6.07-37.42C52.14,60.17,41.79,61.89,41.62,61.57Z"/><path class="cls-8" d="M100.18,111.09c.49,6.54,4.46,3,4.46,3l18.6-31c-.32.19-8.15-6.8-8.15-6.8C100.49,86.18,99.68,104.56,100.18,111.09Z"/><path class="cls-6" d="M74.11,17.32,52.77,1.53l-22.35,50L55,46a15.93,15.93,0,0,0,11.25-7.17l9.32-14.56A5.11,5.11,0,0,0,74.11,17.32Z"/><path class="cls-6" d="M109.36,32.85l1.28,17.23a15.82,15.82,0,0,0,6.48,11.65l19,16.45,4.11-54.57-26.3,3.77A5.11,5.11,0,0,0,109.36,32.85Z"/><path class="cls-9" d="M135,351.06a10.58,10.58,0,0,0-9.27-5.4h0a10.58,10.58,0,0,0-9.27,5.4l-7.79,13.6,4.82,2.8,7.78-13.6a5.14,5.14,0,0,1,8.92,0l16.29,28.44-4.8,2.79,14.4,8.38V376.71l-4.79,2.79Z"/><path class="cls-9" d="M161.6,397.43l-4.82,2.8L165.23,415a5.19,5.19,0,0,1-4.45,7.78H128.2v-5.58l-14.39,8.38L128.2,434v-5.58h32.58a10.58,10.58,0,0,0,9.27-5.39,10.8,10.8,0,0,0,0-10.8Z"/><path class="cls-9" d="M86.31,420.18a5.18,5.18,0,0,1,0-5.19l16.28-28.44,4.8,2.79V372.58L93,381l4.79,2.79L81.49,412.18a10.8,10.8,0,0,0,0,10.8,10.58,10.58,0,0,0,9.27,5.39h18v-5.6h-18A5.08,5.08,0,0,1,86.31,420.18Z"/><path class="cls-9" d="M125.77,318.71c-40.26,0-73,33-73,73.58s32.76,73.59,73,73.59,73-33,73-73.59S166,318.71,125.77,318.71Zm0,140.66c-36.67,0-66.51-30.09-66.51-67.08s29.84-67.07,66.51-67.07,66.51,30.09,66.51,67.07S162.44,459.37,125.77,459.37Z"/><path class="cls-9" d="M171.52,341.35l-96.11,96a3.26,3.26,0,0,0,4.61,4.6l96.11-96a3.26,3.26,0,1,0-4.61-4.6Z"/></g></svg>