<svg xmlns="http://www.w3.org/2000/svg" viewBox="0 0 253.5 535.89"><defs><style>.cls-1{fill:#d85c36;stroke-miterlimit:10;}.cls-1,.cls-2{stroke:#61271b;}.cls-1,.cls-2,.cls-3,.cls-4,.cls-5,.cls-6,.cls-8{stroke-width:3px;}.cls-2{fill:#694434;}.cls-2,.cls-3,.cls-4,.cls-5,.cls-6,.cls-8{stroke-linecap:round;stroke-linejoin:round;}.cls-3{fill:#dadee0;}.cls-3,.cls-4,.cls-8{stroke:#184251;}.cls-4{fill:#2d6a8c;}.cls-5{fill:#ffbd27;}.cls-5,.cls-6{stroke:#26384f;}.cls-6{fill:#006785;}.cls-7{fill:#184251;}.cls-8{fill:#8fceed;}.cls-9{fill:#fff;}</style></defs><g id="Layer_2" data-name="Layer 2"><path class="cls-1" d="M124.92,268H16.63L42.89,492.5a35.28,35.28,0,0,0,35,31.18h95.68a35.28,35.28,0,0,0,35-31.18L234.91,268Z"/><rect class="cls-1" x="1.5" y="246.23" width="248.54" height="27.87" rx="13.61"/><rect class="cls-2" x="22.23" y="469.88" width="25.8" height="64.51" rx="12.6"/><rect class="cls-2" x="203.51" y="469.88" width="25.8" height="64.51" rx="12.6"/><path class="cls-3" d="M44.65,161.2a1.22,1.22,0,0,0-1.72,0l-3.21,3.18a1.22,1.22,0,0,0,0,1.72l4.21,4.25a1.23,1.23,0,0,0,1.73,0l3.21-3.18a1.22,1.22,0,0,0,0-1.72Z"/><path class="cls-3" d="M96,206.14a2.16,2.16,0,0,0-3.06,0l-8.59,8.5a2.15,2.15,0,0,0,0,3.05l2.88,2.91a2.16,2.16,0,0,0,3.06,0l8.59-8.51a2.15,2.15,0,0,0,0-3Z"/><path class="cls-4" d="M55.7,160.55a2.08,2.08,0,0,0-2.94,0L39.07,174.09a2.07,2.07,0,0,0,0,2.94l41.42,41.74a2.09,2.09,0,0,0,3,0l13.69-13.55a2.07,2.07,0,0,0,0-2.94Z"/><path class="cls-5" d="M52.76,160.54,39.07,174.09a2.07,2.07,0,0,0,0,2.94L50,188l16.65-16.48-10.93-11A2.08,2.08,0,0,0,52.76,160.54Z"/><path class="cls-6" d="M249.4,78.26,231.6,52.45A14.8,14.8,0,0,0,211,48.65l-1,.68-6-2.31.14-.34A2.06,2.06,0,0,0,203.06,44l-13.74-5.34a2.06,2.06,0,0,0-2.67,1.17l-.14.35-.09,0,.07.1-.1.27a6.21,6.21,0,0,0-1.8-.05c-12.39,2-16.16,9.06-16.16,9.06l-43.22,111a17.53,17.53,0,0,0,10,22.69l56.62,22a17.56,17.56,0,0,0,22.71-10l30.77-79,6.23-25.87.12-.51.08-.32h0A14.75,14.75,0,0,0,249.4,78.26ZM236.14,97.33l-1.31.9a6.2,6.2,0,0,1-8.62-1.59l-17.8-25.82A6.19,6.19,0,0,1,210,62.21l1.31-.9a6.18,6.18,0,0,1,4.65-1,6.17,6.17,0,0,1,4,2.58l17.79,25.82A6.19,6.19,0,0,1,236.14,97.33Z"/><path class="cls-5" d="M194.87,28.88h4.66a1.1,1.1,0,0,1,1.1,1.1V47.51a1.09,1.09,0,0,1-1.09,1.09h-4.66a1.1,1.1,0,0,1-1.1-1.1V30a1.09,1.09,0,0,1,1.09-1.09Z" transform="translate(89.69 208.54) rotate(-68.77)"/><rect class="cls-3" x="142.43" y="100.24" width="85.62" height="76.33" transform="translate(-10.85 260.96) rotate(-68.77)"/><path class="cls-5" d="M159.92,138.5a23.55,23.55,0,0,0,43.91,17.06c4.72-12.11-6.69-47.71-6.69-47.71S164.64,126.39,159.92,138.5Z"/><path class="cls-7" d="M194.89,143l3.71-2.6c-.18-.47-.4-.95-.66-1.48a5.54,5.54,0,0,1-.58-1.38l-4.54,1a14.17,14.17,0,0,0-2.08-2.33l1.6-4.32a13.1,13.1,0,0,0-2.77-1.56l-3.1,3.41a17.58,17.58,0,0,0-2.95-.66l-1.47-4.29a10,10,0,0,0-3,.28l-.44,4.56a8.84,8.84,0,0,0-1.4.46c-.54.26-1,.53-1.37.71l-3.69-2.69a11.26,11.26,0,0,0-2.33,2.09l2.34,3.92a13.5,13.5,0,0,0-1.52,2.6l-4.62,0a7.72,7.72,0,0,0-.62,3.09l4.09,1.84a14.2,14.2,0,0,0,.31,3.09l-3.72,2.61c.18.44.4.95.59,1.43a3.46,3.46,0,0,0,.62,1.39l4.58-1a7.4,7.4,0,0,0,2.07,2.34l-1.6,4.33a12.49,12.49,0,0,0,2.79,1.55l3.08-3.44a10.11,10.11,0,0,0,2.95.7l1.25,4.34a17.67,17.67,0,0,0,3.16-.32l.44-4.56,1.49-.5c.44-.22,1-.52,1.38-.69l3.68,2.7a16.88,16.88,0,0,0,2.29-2.12l-2.31-4A9.72,9.72,0,0,0,194,151l4.63.07a12.65,12.65,0,0,0,.62-3.09l-4.22-1.77A9.47,9.47,0,0,0,194.89,143Zm-9.42,10.23a8,8,0,1,1-6.38-14.68,8,8,0,0,1,10.53,4.13A8.1,8.1,0,0,1,185.47,153.25Z"/><path class="cls-8" d="M36.15,102.24a2.68,2.68,0,0,0,.49,3.75l8.27,6.34a2.87,2.87,0,0,0,4-.53l7.85-10.21L44.11,91.87Z"/><path class="cls-8" d="M43.22,69.61c-.36.51-8.86,12.75-4.38,20.33l.18.31,22.23,17,.35.1c8.49,2.35,18.12-9,18.53-9.5l1.16-1.39-37-28.37Z"/><path class="cls-3" d="M102.85,58.42,64.16,43.2a4.53,4.53,0,0,0-6,2.55,4.67,4.67,0,0,0,1.6,5.31,4.81,4.81,0,0,0,1.17.67L99.66,67a4.53,4.53,0,0,0,6-2.55A4.72,4.72,0,0,0,102.85,58.42Z"/><path class="cls-3" d="M84.29,76.4c-3.78.09-8.28.75-12.18,7a11.71,11.71,0,0,0-1.67,4.79l-1-.79a4.21,4.21,0,0,1,0,.5c3.59,2.89,7.22,5.72,11,8.4a1.34,1.34,0,0,0-.07-.18c.29-1,.72,0,.29-1-.36-.86-2.41-4.22-.65-6.63.55-.76,2.07-1.27,4.27-1.32,2.56-.06,4.07-2.2,4.38-4.71C89.06,79.1,86.85,76.34,84.29,76.4Z"/><path class="cls-3" d="M94.66,71.52,56,56.3A4.52,4.52,0,0,0,50,58.85a4.77,4.77,0,0,0,2.77,6l.23.09c.39,1.77.19,2.67,0,2.91-.6.69-3.16.84-4.87.51a9.47,9.47,0,0,0-2.84.18c3.61,2.66,7.13,5.44,10.61,8.27A10,10,0,0,0,60,74.05a9.75,9.75,0,0,0,2.4-5.43l29,11.43a4.53,4.53,0,0,0,6-2.55A4.71,4.71,0,0,0,94.66,71.52Z"/><path class="cls-3" d="M110.72,44.82,72,29.61a4.53,4.53,0,0,0-6,2.54,4.68,4.68,0,0,0,1.6,5.32,4.78,4.78,0,0,0,1.17.66l38.69,15.22a4.52,4.52,0,0,0,6-2.55A4.72,4.72,0,0,0,110.72,44.82Z"/><path class="cls-3" d="M118.76,31,80.07,15.79a4.53,4.53,0,0,0-6,2.55,4.68,4.68,0,0,0,1.6,5.32,4.78,4.78,0,0,0,1.17.66l38.69,15.22a4.52,4.52,0,0,0,6-2.55A4.72,4.72,0,0,0,118.76,31Z"/><path class="cls-3" d="M109.85,10.87l-21.54-9a4.53,4.53,0,0,0-6,2.42A4.67,4.67,0,0,0,83.86,9.7a4.41,4.41,0,0,0,1.08.62l21.53,9a4.54,4.54,0,0,0,6-2.42A4.72,4.72,0,0,0,109.85,10.87Z"/><path class="cls-8" d="M39.25,111.32a6.06,6.06,0,0,0,5.37.8l-7.54-5.78A6.06,6.06,0,0,0,39.25,111.32Z"/><path class="cls-8" d="M81.09,94.4,46.45,67.86a2.56,2.56,0,1,0-3.12,4L78,98.45a2.55,2.55,0,1,0,3.11-4Z"/><path class="cls-9" d="M135.19,401a10.75,10.75,0,0,0-9.42-5.44h0a10.77,10.77,0,0,0-9.43,5.44l-7.91,13.69,4.89,2.82,7.92-13.69a5.24,5.24,0,0,1,9.06,0l16.55,28.64L142,435.28l14.64,8.43V426.84l-4.87,2.81Z"/><path class="cls-9" d="M162.19,447.7l-4.9,2.82,8.59,14.86a5.23,5.23,0,0,1-4.53,7.84H128.24V467.6L113.61,476l14.63,8.44v-5.62h33.11a10.87,10.87,0,0,0,9.43-16.3Z"/><path class="cls-9" d="M85.65,470.61a5.2,5.2,0,0,1,0-5.23l16.56-28.64,4.87,2.81V422.68l-14.64,8.43,4.88,2.81L80.76,462.56a10.87,10.87,0,0,0,9.42,16.3h18.3v-5.64H90.18A5.19,5.19,0,0,1,85.65,470.61Z"/><path class="cls-9" d="M101.72,311.74a6,6,0,0,0-10.35,0L63.72,359.57h0a6,6,0,0,0,5.17,9h55.3a6,6,0,0,0,5.18-9ZM65.16,360.4h0Zm61.32,3.47a2.61,2.61,0,0,1-2.29,1.32H68.89a2.64,2.64,0,0,1-2.28-3.95h0l27.65-47.83a2.64,2.64,0,0,1,4.57,0l27.65,47.83A2.63,2.63,0,0,1,126.48,363.87Z"/><path class="cls-9" d="M96.54,329.37a2,2,0,0,0-2,2v18.72a2,2,0,0,0,4,0V331.37A2,2,0,0,0,96.54,329.37Z"/><path class="cls-9" d="M96.54,356a2,2,0,0,0-2,2v1.48a2,2,0,0,0,4,0V358A2,2,0,0,0,96.54,356Z"/><path class="cls-9" d="M179.54,319.61a1.67,1.67,0,0,0-3,1.31c.93,5-.94,7.77-2.68,9.18A42.83,42.83,0,0,0,172.2,322c-4.26-12.11-17-14.75-17.53-14.85a1.68,1.68,0,0,0-1.81.87,1.66,1.66,0,0,0,.34,2c3.23,3,4.83,6.13,4.75,9.17-.14,5.32-5.29,9.65-7.76,11.74l-.52.44c-3.68,3.15-6.87,9.19-7.26,12.47-2.18,18.09,15.1,23.46,16.68,23.91a15.85,15.85,0,0,0,5.33.72,47.57,47.57,0,0,0,6.7-.54l.3-.08c13-4.67,19.06-15.11,16.72-28.64C186.29,328.55,179.81,320,179.54,319.61Zm-8.73,12.26Zm0,34.41h0Zm-.41-1.62c-2.17.33-7.8.91-10.21,0a1.17,1.17,0,0,0-.2-.06c-.66-.18-16.23-4.39-14.31-20.32.28-2.29,3-7.64,6.12-10.34l.51-.42c2.84-2.4,8.75-7.39,8.93-14.2a12.65,12.65,0,0,0-1.79-6.74,19.37,19.37,0,0,1,9.56,10.59c1,2.87,1.78,7.82,1.55,9a1.67,1.67,0,0,0,1.9,2.49,11.2,11.2,0,0,0,7.35-8.31,43.94,43.94,0,0,1,5,13.47C186.05,346.68,185.75,359.07,170.44,364.66Z"/><path class="cls-9" d="M165.59,339.43a1.7,1.7,0,0,0-1.56.31,1.68,1.68,0,0,0-.62,1.49c.15,1.65-.65,3.17-2.7,5.09-3.27,3.05-6.79,7.41-5,14.06,1.46,5.29,4.89,7.95,10.49,8.14h.45a11.13,11.13,0,0,0,8.25-3.4,11.67,11.67,0,0,0,2.91-9.29C177.26,349.66,172.76,341.81,165.59,339.43Zm-3.73,8.1h0Zm10.65,15.31a8,8,0,0,1-6.16,2.35c-4.16-.14-6.3-1.79-7.38-5.7s.08-7.05,4-10.74h0a11.3,11.3,0,0,0,3.53-5.27c4.54,2.56,7.57,8.11,8,12.67A8.39,8.39,0,0,1,172.51,362.84Z"/></g></svg>