<svg xmlns="http://www.w3.org/2000/svg" viewBox="0 0 251.54 552.67"><defs><style>.cls-1,.cls-6{fill:#8fceed;stroke:#184251;}.cls-1,.cls-3,.cls-4{stroke-miterlimit:10;}.cls-1,.cls-2,.cls-3,.cls-4,.cls-6{stroke-width:3px;}.cls-2{fill:#694434;stroke:#61271b;}.cls-2,.cls-6{stroke-linecap:round;stroke-linejoin:round;}.cls-3{fill:#649d42;stroke:#3c6620;}.cls-4{fill:#ffb312;stroke:#9b3a2a;}.cls-5{fill:#00658f;opacity:0.07;}.cls-7{fill:#b4daed;opacity:0.6;}.cls-8{fill:#fff;}</style></defs><g id="Layer_2" data-name="Layer 2"><path class="cls-1" d="M124.92,284.73H16.63L42.89,509.28a35.28,35.28,0,0,0,35,31.18h95.68a35.28,35.28,0,0,0,35-31.18l26.26-224.55Z"/><rect class="cls-1" x="1.5" y="263.01" width="248.54" height="27.87" rx="13.61"/><rect class="cls-2" x="22.23" y="486.66" width="25.8" height="64.51" rx="12.6"/><rect class="cls-2" x="203.51" y="486.66" width="25.8" height="64.51" rx="12.6"/><path class="cls-3" d="M215.43,124.77l-25.22,43.62-.29.17a11.57,11.57,0,0,0-5,6l-23.12,64.32a6.2,6.2,0,0,0,.22,4.71,6,6,0,0,0,3.45,3.16L188.32,255a5.87,5.87,0,0,0,2,.36,6.2,6.2,0,0,0,5.81-4.11l23.12-64.32a11.55,11.55,0,0,0,0-7.78l-.11-.32L228,129.28Z"/><path class="cls-3" d="M230.48,126.35,216,121.16a1.48,1.48,0,0,0-1.88.9l-.15.43a1.48,1.48,0,0,0,.88,1.89l14.46,5.18a1.48,1.48,0,0,0,1.88-.9l.15-.42A1.47,1.47,0,0,0,230.48,126.35Z"/><rect class="cls-4" x="174.17" y="192.28" width="40.02" height="23.35" transform="translate(-63.33 317.94) rotate(-70.28)"/><path class="cls-1" d="M121.82,213.46,92.9,158.33c-5.15-9.81-12-9.37-13.61-9.54a9,9,0,0,1-3.51-2,1.27,1.27,0,0,0-1.32-2.15l-.37.17-.8-1.51.45-.22a1.27,1.27,0,0,0,.59-1.69,1.28,1.28,0,0,0-1.7-.59l-.52.25-.61-1.16a2.08,2.08,0,0,0-2.81-.88L37,155.6a2.08,2.08,0,0,0-.88,2.81h0l-.29.15a1.27,1.27,0,0,0,1.1,2.28l.37-.18.8,1.52-.45.21a1.27,1.27,0,1,0,1.11,2.28l.46-.22c.1.79.48,4.12-.23,5.4-.79,1.46-5,6.8.11,16.6L68,241.6s5.51,10,15.43,4.81l10.12-5.3,13.29-7,10.12-5.3C126.91,223.68,121.82,213.46,121.82,213.46Z"/><path class="cls-4" d="M87.64,175.83c-13.43,7-21.1,18.85-17.14,26.4s18.06,8,31.49,1a45.37,45.37,0,0,0,10.27-7.28L99.48,171.55A45.39,45.39,0,0,0,87.64,175.83Z"/><path class="cls-5" d="M72.46,229.19C66.82,223.78,64.19,215.9,61,209c-4-8.71-9-16.82-11.84-26.07-1.44-4.68-2.07-9.55-3.55-14.21-.31-1-.65-1.91-1-2.86L44,164.41c-1.11-2.29-2.3-4.52-3.54-6.73a17.1,17.1,0,0,1-1.38-3.18L37,155.6a2.08,2.08,0,0,0-.88,2.81h0l-.29.15a1.27,1.27,0,0,0,1.1,2.28l.37-.18.79,1.52-.44.21a1.27,1.27,0,1,0,1.11,2.28l.46-.22c.1.79.48,4.12-.23,5.4-.79,1.46-5,6.8.11,16.6L68,241.6s5.51,10,15.43,4.81l10.12-5.3,13.29-7,4.23-2.21a68.19,68.19,0,0,1-15.55,3.17C87.43,236,78.62,235.1,72.46,229.19Z"/><polygon class="cls-6" points="160.23 29.9 166.7 43.22 178.09 52.95 178.44 26.64 170.86 28.59 160.23 29.9"/><polygon class="cls-6" points="129.37 22.28 129.38 22.11 120.54 12.49 97.05 19.27 124.2 35.59 137.52 30.97 129.38 22.11 129.37 22.28"/><polygon class="cls-6" points="149.05 30.68 161.72 3.58 137.52 1.5 149.05 30.68"/><polygon class="cls-6" points="154.94 56.03 144.88 45.16 131.56 49.78 104.4 33.46 84.3 39.27 111.55 133.34 183.32 112.61 168.67 62.04 154.94 56.03"/><path class="cls-7" d="M158.74,62.9c-23.12-3.76-46.32-7.47-69-13.48l7,25.75c25.27,2.34,50.46,5.48,75.66,8.59l-5.33-19.52C164.3,63.8,161.52,63.36,158.74,62.9Z"/><path class="cls-7" d="M109.34,117.81A284,284,0,0,0,144.43,122l27.2-8.26c-21.82-2.66-43.63-5.38-65.5-7.53Z"/><path class="cls-8" d="M135.07,420.53a10.63,10.63,0,0,0-9.3-5.36h0a10.63,10.63,0,0,0-9.3,5.36L108.66,434l4.83,2.79,7.81-13.51a5.16,5.16,0,0,1,8.94,0l16.34,28.26-4.81,2.77,14.45,8.33V446l-4.81,2.77Z"/><path class="cls-8" d="M161.71,466.61l-4.83,2.78,8.48,14.67a5.16,5.16,0,0,1-4.47,7.74H128.21v-5.55l-14.44,8.33,14.44,8.33v-5.55h32.68a10.72,10.72,0,0,0,9.3-16.08Z"/><path class="cls-8" d="M86.18,489.22a5.12,5.12,0,0,1,0-5.16l16.34-28.26,4.81,2.77V441.91l-14.45,8.33L97.69,453,81.35,481.28a10.72,10.72,0,0,0,9.3,16.08h18.06V491.8H90.65A5.14,5.14,0,0,1,86.18,489.22Z"/><path class="cls-8" d="M110.26,341.51V328.8a1.65,1.65,0,0,0,1.4-1.63v-3.24a1.65,1.65,0,0,0-1.65-1.65h-9.64a1.65,1.65,0,0,0-1.65,1.65v3.24a1.65,1.65,0,0,0,1.4,1.63v12.71a12.72,12.72,0,0,0-7.36,11.62V390a5,5,0,0,0,4.94,5h15a5,5,0,0,0,4.94-5V353.13A12.72,12.72,0,0,0,110.26,341.51ZM114.33,390a1.7,1.7,0,0,1-1.65,1.74h-15A1.7,1.7,0,0,1,96.05,390V353.13a9.41,9.41,0,0,1,6.26-9,1.64,1.64,0,0,0,1.11-1.55V327.17a1.65,1.65,0,0,0-1.27-1.6h6.08a1.65,1.65,0,0,0-1.27,1.6v15.45a1.64,1.64,0,0,0,1.11,1.55,9.41,9.41,0,0,1,6.26,9Z"/><path class="cls-8" d="M157.13,355h-5.21a1.65,1.65,0,0,0-1.5,1l-4.14,9.19-1.54-8.8a1.63,1.63,0,0,0-1.62-1.36h-12a1.65,1.65,0,0,0-1.63,1.82l3.92,36.55a1.65,1.65,0,0,0,1.64,1.47h18.13a1.66,1.66,0,0,0,1.64-1.47l3.92-36.55a1.65,1.65,0,0,0-1.64-1.82Zm-5.4,36.55H136.55L133,358.27h8.75L144,371a1.65,1.65,0,0,0,3.13.39l5.9-13.11h2.31Z"/><path class="cls-8" d="M147.08,370a1.64,1.64,0,0,0-3,1.37l2.19,4.77-1.9,5.41a1.65,1.65,0,0,0,1,2.09,1.76,1.76,0,0,0,.55.09,1.64,1.64,0,0,0,1.55-1.1l2.11-6a1.63,1.63,0,0,0,0-1.23Z"/></g></svg>