<svg xmlns="http://www.w3.org/2000/svg" viewBox="0 0 251.54 546.26"><defs><style>.cls-1{isolation:isolate;}.cls-2{fill:#649d42;stroke:#3c6620;}.cls-2,.cls-4,.cls-5{stroke-miterlimit:10;}.cls-10,.cls-11,.cls-12,.cls-2,.cls-3,.cls-4,.cls-5,.cls-6,.cls-8{stroke-width:3px;}.cls-3{fill:#694434;stroke:#61271b;}.cls-10,.cls-11,.cls-12,.cls-3,.cls-6,.cls-8{stroke-linecap:round;stroke-linejoin:round;}.cls-4{fill:#8fceed;}.cls-12,.cls-4,.cls-5{stroke:#184251;}.cls-12,.cls-5{fill:#2d6a8c;}.cls-6{fill:#ffb312;}.cls-6,.cls-8{stroke:#9b3a2a;}.cls-11,.cls-13,.cls-7{fill:#fff;}.cls-7{opacity:0.15;}.cls-8{fill:#d85c36;}.cls-9{fill:#ebebeb;opacity:0.6;mix-blend-mode:multiply;}.cls-10{fill:#1db1cd;stroke:#2d6a8c;}.cls-11{stroke:#8fceed;}</style></defs><g class="cls-1"><g id="Layer_2" data-name="Layer 2"><path class="cls-2" d="M124.92,278.32H16.63L42.89,502.87a35.28,35.28,0,0,0,35,31.18h95.68a35.28,35.28,0,0,0,35-31.18l26.26-224.55Z"/><rect class="cls-2" x="1.5" y="256.6" width="248.54" height="27.87" rx="13.61"/><rect class="cls-3" x="22.23" y="480.25" width="25.8" height="64.51" rx="12.6"/><rect class="cls-3" x="203.51" y="480.25" width="25.8" height="64.51" rx="12.6"/><path class="cls-4" d="M191.75,118.91l-12.09-3.13-1.43,5c-7.87,2.53-18.92,15.44-21.1,23.16l-.25.89A13.43,13.43,0,0,0,158,155.3l-.72,2.58a17.05,17.05,0,0,0-6.65,9.32l-16.43,58.32a8.25,8.25,0,0,0,1.58,7.48c1.2,3.28,3.77,9.06,11.47,6.73,0,0,3.22-.91,7.15,1.85,5.18,5.46,10.2,2.29,13,0a8.71,8.71,0,0,0,6-5.94l16.44-58.32a16.49,16.49,0,0,0-.85-11.26l.73-2.58a14,14,0,0,0,6.41-8.49l.25-.89c2.18-7.73-.51-24.26-6.07-30.21Z"/><path class="cls-5" d="M193.72,113.88l-13.12-3.4a.91.91,0,0,0-1.11.61l-1.73,6.13a.87.87,0,0,0,.64,1.06l13.12,3.39a.92.92,0,0,0,1.11-.61l1.72-6.12A.86.86,0,0,0,193.72,113.88Z"/><path class="cls-6" d="M73,51.72c-.26-.22-7,2.7-7,2.7s-1.58,7.92,1.85,19.22c2.06,6.79,4.29,16.65,5,19.1C58.4,101.68,35,109,35,109S27.23,95.9,24,91.78c-2.33-2.92-11.32-11-11.32-11L6.41,83.54S1.33,97.26,19.84,129.79C25.2,139.2,40,164.23,41.14,167.3c4,10.34,22.46,32.14,22.46,32.14l69.3-33.88s-5.89-28-11.64-37.43S88.07,64.05,73,51.72ZM23.72,114.77c-4.57-5-11-14.09-12-24,7.41,4.89,9.19,9.4,9.74,11.39.44,1.6,1.24,5.81,1.8,9.43C23.47,113,23.62,114,23.72,114.77ZM84,83.22c-.57,1.85-1.79,3-3.77,4.8-4.8-7.19-4.6-17.23-6.09-24.75C79.54,69.79,85.46,78.34,84,83.22Z"/><path class="cls-7" d="M78.42,110.25l-.32.22C78,110.52,78.1,110.48,78.42,110.25Z"/><path class="cls-8" d="M58.76,193.54c2.83,3.53,4.84,5.9,4.84,5.9l69.3-33.88s-.64-3-1.7-7.44Z"/><path class="cls-9" d="M66.14,54.35l-.15.07s-1.58,7.92,1.85,19.22c2.06,6.79,4.29,16.65,5,19.1-.33.2,5.88-3.79,7.1-5.18-4.5-7.16-4.34-16.93-5.8-24.29C74.42,63.67,68.35,57.14,66.14,54.35Z"/><path class="cls-10" d="M189.74,62.16A12.71,12.71,0,0,0,192.33,59L205.64,36.4h0c.43-.71,2.21-4.32-1.9-9L191.23,13h-.87a92.72,92.72,0,0,0-34.23,7.08l-.27.12-44.62,39a7.32,7.32,0,0,0-.91,10.4l26.2,30c2.58,3,6.84,3,10.12.16Z"/><polygon class="cls-11" points="150.99 37.45 133.29 52.9 155.83 78.75 173.52 63.29 150.99 37.45"/><polygon class="cls-12" points="207.87 23.94 218.94 12.43 209.44 1.5 196.52 10.88 195.63 9.85 190.81 13.16 204.82 29.29 208.77 24.97 207.87 23.94"/><path class="cls-13" d="M135.06,414.25a10.61,10.61,0,0,0-9.29-5.36h0a10.61,10.61,0,0,0-9.29,5.36l-7.8,13.49,4.83,2.78L121.3,417a5.16,5.16,0,0,1,8.94,0l16.31,28.22-4.8,2.76,14.42,8.32V439.7l-4.8,2.77Z"/><path class="cls-13" d="M161.65,460.26,156.83,463l8.47,14.64a5.15,5.15,0,0,1-4.47,7.72H128.21v-5.53l-14.42,8.32,14.42,8.31V491h32.62a10.71,10.71,0,0,0,9.29-16.06Z"/><path class="cls-13" d="M86.24,482.83a5.1,5.1,0,0,1,0-5.15l16.31-28.22,4.8,2.77V435.6l-14.42,8.31,4.8,2.77L81.42,474.9A10.71,10.71,0,0,0,90.71,491h18V485.4h-18A5.1,5.1,0,0,1,86.24,482.83Z"/><path class="cls-13" d="M107,347.9v-4.75a8.93,8.93,0,0,0,2-5.73v-.48c0-4.36-3.41-12-7.23-15v-1a1.65,1.65,0,0,0-.5-1.18,1.54,1.54,0,0,0-1.18-.46l-6.44.13A1.65,1.65,0,0,0,92,321.09v1.05c-3.82,3.17-7.23,10.93-7.23,15.25v.47a8.6,8.6,0,0,0,2,5.66v4.75a10.52,10.52,0,0,0-2,6.11v26.67a5.89,5.89,0,0,0,2.3,4.66c1.75,2.33,3.55,3.11,5.17,3.11a6.5,6.5,0,0,0,3.46-1.12,3.11,3.11,0,0,1,2.3,0c2.19,1.25,5.34,1.81,8.31-2.1a6.09,6.09,0,0,0,2.65-5V353.94A10.19,10.19,0,0,0,107,347.9ZM104.33,383a1.57,1.57,0,0,0-.46.43c-1.45,2-2.61,2.37-4.3,1.36a2,2,0,0,0-.3-.14,6.21,6.21,0,0,0-5.24.25c-1.75,1.11-2.9.77-4.41-1.32a1.56,1.56,0,0,0-.39-.38,2.61,2.61,0,0,1-1.13-2.15V354.38a7.11,7.11,0,0,1,1.63-4.52,1.62,1.62,0,0,0,.36-1v-5.94a1.66,1.66,0,0,0-.47-1.16,5.26,5.26,0,0,1-1.52-3.87v-.47c0-3.54,3.42-11,6.49-13.07a1.64,1.64,0,0,0,.74-1.37v-.25l3.15-.07v.17a1.63,1.63,0,0,0,.79,1.4c3,1.86,6.44,9.18,6.44,12.74v.48a5.49,5.49,0,0,1-1.54,4,1.67,1.67,0,0,0-.45,1.14v5.94a1.65,1.65,0,0,0,.38,1,6.78,6.78,0,0,1,1.61,4.42V380.6A2.84,2.84,0,0,1,104.33,383Z"/><path class="cls-13" d="M101.1,315.88H92.7a1.64,1.64,0,0,0-1.65,1.64V321a1.64,1.64,0,0,0,1.65,1.64h8.4a1.63,1.63,0,0,0,1.64-1.64v-3.5A1.63,1.63,0,0,0,101.1,315.88Zm-1.64,3.5H94.34v-.22h5.12Z"/><path class="cls-13" d="M105,341.24H88.44a1.65,1.65,0,0,0,0,3.29H105a1.65,1.65,0,0,0,0-3.29Z"/><path class="cls-13" d="M105,347.12H88.44a1.65,1.65,0,0,0,0,3.29H105a1.65,1.65,0,0,0,0-3.29Z"/><path class="cls-13" d="M165.09,316.07h-7.61a1.65,1.65,0,0,0-1.64,1.49c0,.09-.86,8.91-2.07,18.53-.43,3.39-2.19,5-5.54,5h-8.86c-3.35,0-5.11-1.57-5.53-5-1.22-9.62-2.07-18.44-2.08-18.53a1.65,1.65,0,0,0-1.63-1.49h-7.62a1.64,1.64,0,0,0-1.64,1.65v69.45a1.64,1.64,0,0,0,1.64,1.64h42.58a1.65,1.65,0,0,0,1.65-1.64V317.72A1.65,1.65,0,0,0,165.09,316.07Zm-1.64,69.45h-39.3V319.36h4.49c.29,2.93,1,9.8,1.93,17.14.64,5.05,3.77,7.84,8.8,7.84h8.86c5,0,8.16-2.79,8.8-7.84.93-7.34,1.64-14.21,1.94-17.14h4.48Z"/><path class="cls-13" d="M165,379.29H122.6a1.64,1.64,0,1,0,0,3.28H165a1.64,1.64,0,1,0,0-3.28Z"/></g></g></svg>