<svg xmlns="http://www.w3.org/2000/svg" viewBox="0 0 251.54 563.68"><defs><style>.cls-1{fill:#ffb312;stroke:#9b3a2a;stroke-miterlimit:10;}.cls-1,.cls-10,.cls-2,.cls-3,.cls-4,.cls-5,.cls-6,.cls-8,.cls-9{stroke-width:3px;}.cls-2{fill:#694434;}.cls-10,.cls-2,.cls-8,.cls-9{stroke:#61271b;}.cls-10,.cls-2,.cls-3,.cls-4,.cls-5,.cls-6,.cls-8,.cls-9{stroke-linecap:round;stroke-linejoin:round;}.cls-3{fill:#dadee0;}.cls-3,.cls-4,.cls-5,.cls-6{stroke:#184251;}.cls-4{fill:#f3f4f5;}.cls-5{fill:#28789d;}.cls-6{fill:#c2c7c9;}.cls-7{fill:#184251;}.cls-8{fill:#cf9783;}.cls-9{fill:#af7059;}.cls-10{fill:#bf8b79;}.cls-11{fill:#fff;}</style></defs><g id="Layer_2" data-name="Layer 2"><path class="cls-1" d="M124.92,295.74H16.63L42.89,520.29a35.28,35.28,0,0,0,35,31.18h95.68a35.28,35.28,0,0,0,35-31.18l26.26-224.55Z"/><rect class="cls-1" x="1.5" y="274.02" width="248.54" height="27.87" rx="13.61"/><rect class="cls-2" x="22.23" y="497.67" width="25.8" height="64.51" rx="12.6"/><rect class="cls-2" x="203.51" y="497.67" width="25.8" height="64.51" rx="12.6"/><rect class="cls-3" x="167.16" y="189.31" width="81.68" height="32.31" transform="translate(-27.04 379.36) rotate(-81.14)"/><polygon class="cls-4" points="193.38 143.1 198.34 162.63 230.26 167.6 225.21 148.06 193.38 143.1"/><polygon class="cls-5" points="193.38 143.1 182.72 160.19 182.69 160.19 170.09 240.89 185.74 243.33 198.34 162.63 193.38 143.1"/><path class="cls-5" d="M222.82,139.23l-24.64-3.84a3.73,3.73,0,0,0-4.25,3.11l-.72,4.58,32,5,.72-4.58A3.72,3.72,0,0,0,222.82,139.23Z"/><polygon class="cls-6" points="146.78 235.7 42.09 253.35 146 243.09 146.78 235.7"/><rect class="cls-3" x="29.51" y="103.98" width="108.31" height="141.33" transform="translate(-28.05 16.47) rotate(-9.63)"/><rect class="cls-7" x="44.27" y="217.75" width="91.93" height="3.78" transform="translate(-35.49 18.2) rotate(-9.63)"/><rect class="cls-7" x="89.6" y="128.43" width="34.38" height="31.59" transform="translate(-22.63 19.91) rotate(-9.63)"/><rect class="cls-7" x="29.99" y="137.06" width="49.28" height="2.49" transform="translate(-22.38 11.09) rotate(-9.63)"/><rect class="cls-7" x="30.97" y="142.8" width="49.28" height="2.49" transform="translate(-23.32 11.34) rotate(-9.63)"/><rect class="cls-7" x="31.94" y="148.53" width="49.28" height="2.49" transform="translate(-24.26 11.58) rotate(-9.63)"/><rect class="cls-7" x="32.92" y="154.27" width="49.28" height="2.49" transform="translate(-25.21 11.82) rotate(-9.63)"/><rect class="cls-7" x="33.89" y="160.01" width="49.28" height="2.49" transform="translate(-26.17 12.07) rotate(-9.64)"/><rect class="cls-7" x="34.86" y="165.74" width="49.28" height="2.49" transform="translate(-27.11 12.32) rotate(-9.64)"/><polygon class="cls-7" points="61.89 193.27 61.33 189.99 61.38 189.98 60.97 187.52 60.91 187.53 60.36 184.25 60.41 184.25 59.99 181.79 59.94 181.79 58.97 176.06 36.69 179.83 37.66 185.57 38.08 188.03 38.64 191.3 39.06 193.76 39.61 197.04 40.03 199.48 40.03 199.5 62.36 195.72 61.94 193.26 61.89 193.27"/><rect class="cls-7" x="40.64" y="200.87" width="22.64" height="2.49" transform="translate(-33.09 11.54) rotate(-9.63)"/><rect class="cls-7" x="63.01" y="173.47" width="22.64" height="2.49" transform="translate(-28.2 14.91) rotate(-9.64)"/><rect class="cls-7" x="63.98" y="179.21" width="22.64" height="2.49" transform="translate(-29.13 15.14) rotate(-9.63)"/><rect class="cls-7" x="64.95" y="184.95" width="22.64" height="2.49" transform="translate(-30.09 15.4) rotate(-9.64)"/><rect class="cls-7" x="65.93" y="190.69" width="22.64" height="2.49" transform="translate(-31.04 15.64) rotate(-9.64)"/><rect class="cls-7" x="66.9" y="196.42" width="22.64" height="2.49" transform="translate(-31.98 15.88) rotate(-9.63)"/><rect class="cls-7" x="92.02" y="167.47" width="35.53" height="2.49" transform="translate(-26.69 20.76) rotate(-9.64)"/><rect class="cls-7" x="93" y="173.21" width="35.53" height="2.49" transform="translate(-27.63 20.99) rotate(-9.63)"/><rect class="cls-7" x="93.97" y="178.94" width="35.53" height="2.49" transform="translate(-28.58 21.24) rotate(-9.63)"/><rect class="cls-7" x="94.95" y="184.68" width="35.53" height="2.49" transform="translate(-29.53 21.48) rotate(-9.63)"/><rect class="cls-7" x="95.92" y="190.42" width="35.53" height="2.49" transform="translate(-30.47 21.73) rotate(-9.63)"/><rect class="cls-7" x="41.61" y="206.61" width="22.64" height="2.49" transform="translate(-34.04 11.79) rotate(-9.63)"/><rect class="cls-7" x="67.88" y="202.16" width="22.64" height="2.49" transform="matrix(0.99, -0.17, 0.17, 0.99, -32.92, 16.12)"/><rect class="cls-7" x="42.65" y="212.75" width="22.64" height="2.49" transform="translate(-35.05 12.05) rotate(-9.63)"/><rect class="cls-7" x="68.92" y="208.3" width="22.64" height="2.49" transform="translate(-33.94 16.39) rotate(-9.64)"/><rect class="cls-7" x="96.89" y="196.15" width="35.53" height="2.49" transform="translate(-31.42 21.97) rotate(-9.63)"/><rect class="cls-7" x="97.94" y="202.3" width="35.53" height="2.49" transform="translate(-32.44 22.24) rotate(-9.64)"/><rect class="cls-7" x="123.61" y="217.61" width="12.89" height="2.36" transform="translate(-34.78 24.85) rotate(-9.63)"/><polygon class="cls-2" points="137.15 47.1 191.58 30.22 202.35 1.5 148.46 18.21 137.15 47.1"/><polygon class="cls-8" points="150.09 27.82 174.07 35.65 227.4 19.11 203.99 11.1 150.09 27.82"/><rect class="cls-9" x="146.01" y="39.89" width="38.72" height="65.49" transform="translate(-14.11 52.38) rotate(-17.27)"/><rect class="cls-10" x="182.59" y="25.8" width="56.42" height="65.49" transform="translate(-7.88 65.23) rotate(-17.27)"/><path class="cls-11" d="M135.08,431.47a10.64,10.64,0,0,0-9.31-5.37h0a10.64,10.64,0,0,0-9.31,5.37L108.64,445l4.84,2.79,7.81-13.53a5.18,5.18,0,0,1,9,0l16.35,28.29-4.81,2.77,14.45,8.34V457l-4.81,2.77Z"/><path class="cls-11" d="M161.74,477.59l-4.83,2.78,8.48,14.68a5.16,5.16,0,0,1-4.47,7.74H128.21v-5.54l-14.45,8.33,14.45,8.34v-5.55h32.71a10.74,10.74,0,0,0,9.3-16.1Z"/><path class="cls-11" d="M86.15,500.21a5.07,5.07,0,0,1,0-5.16l16.35-28.29,4.81,2.78V452.87L92.85,461.2,97.67,464,81.31,492.27a10.74,10.74,0,0,0,9.31,16.1h18.07v-5.58H90.62A5.09,5.09,0,0,1,86.15,500.21Z"/><path class="cls-11" d="M115,340a1.65,1.65,0,0,0-1.2-.51H75a1.64,1.64,0,0,0-1.65,1.64v63.22A1.65,1.65,0,0,0,75,406h51a1.65,1.65,0,0,0,1.65-1.65l0-50.18a1.63,1.63,0,0,0-.45-1.13Zm9.42,62.71H76.68V342.75H113l11.37,12Z"/><path class="cls-11" d="M118.25,363.84H82.8a1.65,1.65,0,1,0,0,3.29h35.45a1.65,1.65,0,1,0,0-3.29Z"/><path class="cls-11" d="M118.25,371.78H82.8a1.65,1.65,0,1,0,0,3.3h35.45a1.65,1.65,0,0,0,0-3.3Z"/><path class="cls-11" d="M118.25,379.73H82.8a1.65,1.65,0,1,0,0,3.29h35.45a1.65,1.65,0,1,0,0-3.29Z"/><path class="cls-11" d="M118.25,387.67H82.8a1.65,1.65,0,1,0,0,3.29h35.45a1.65,1.65,0,1,0,0-3.29Z"/><path class="cls-11" d="M118.25,402.68H82.8a1.65,1.65,0,1,0,0,3.29h35.45a1.65,1.65,0,1,0,0-3.29Z"/><path class="cls-11" d="M125.51,352.78H114.92V342.2a1.65,1.65,0,0,0-3.29,0v12.22a1.65,1.65,0,0,0,1.65,1.65h12.23a1.65,1.65,0,1,0,0-3.29Z"/><path class="cls-11" d="M153.64,352.8H141.25a1.65,1.65,0,0,0-1.65,1.65v49.87a1.65,1.65,0,0,0,1.65,1.65h12.39a1.65,1.65,0,0,0,1.65-1.65V354.45A1.65,1.65,0,0,0,153.64,352.8ZM152,402.68H142.9V356.09H152Z"/><path class="cls-11" d="M176.51,352.8H153.64a1.65,1.65,0,0,0-1.65,1.65v49.87a1.65,1.65,0,0,0,1.65,1.65h22.87a1.65,1.65,0,0,0,1.65-1.65V354.45A1.65,1.65,0,0,0,176.51,352.8Zm-1.65,49.88H155.29V356.09h19.57Z"/><path class="cls-11" d="M148.9,340.15a1.74,1.74,0,0,0-1.51-1,1.63,1.63,0,0,0-1.49,1l-6.15,13.61a1.65,1.65,0,0,0,1.5,2.32h12.39a1.65,1.65,0,0,0,1.5-2.33Zm-5.1,12.65,3.61-8,3.66,8Z"/><path class="cls-11" d="M171.85,340.16a1.66,1.66,0,0,0-1.5-1H147.4a1.65,1.65,0,1,0,0,3.29h21.88L175,355.12a1.64,1.64,0,0,0,3-1.35Z"/><path class="cls-11" d="M167.76,333.29H150a4.08,4.08,0,0,0-4.08,4.08v3.57a1.65,1.65,0,0,0,1.65,1.65h22.66a1.64,1.64,0,0,0,1.64-1.65v-3.57A4.08,4.08,0,0,0,167.76,333.29Zm.78,6H149.18v-1.93a.78.78,0,0,1,.78-.79h17.8a.78.78,0,0,1,.78.79Z"/><path class="cls-11" d="M175.39,382.84c-3.29,2.81-4.11,2.14-6.56.11a21.51,21.51,0,0,0-3.39-2.41c-5.74-3.13-12.31,4.26-12.58,4.57a1.65,1.65,0,1,0,2.48,2.17c1.3-1.49,5.68-5.4,8.52-3.85a17.82,17.82,0,0,1,2.87,2.06c1.47,1.21,3,2.51,5.14,2.51,1.55,0,3.38-.7,5.67-2.66a1.65,1.65,0,1,0-2.15-2.5Z"/></g></svg>