<svg xmlns="http://www.w3.org/2000/svg" viewBox="0 0 781.36 978.37"><defs><style>.cls-1,.cls-11,.cls-2{fill:#8fceed;}.cls-1,.cls-11,.cls-2,.cls-3,.cls-5{stroke:#184251;}.cls-1,.cls-11{stroke-linecap:round;stroke-width:3.03px;}.cls-1{stroke-linejoin:round;}.cls-10,.cls-11,.cls-12,.cls-13,.cls-14,.cls-2,.cls-3,.cls-4,.cls-5,.cls-7{stroke-miterlimit:10;}.cls-10,.cls-2,.cls-3,.cls-4,.cls-5,.cls-7{stroke-width:3.03px;}.cls-3,.cls-4{fill:#28789d;}.cls-4{stroke:#2d6a8c;}.cls-10,.cls-5{fill:#f5ecef;}.cls-13,.cls-6{fill:#221e1f;}.cls-7{fill:#d85c36;stroke:#61271b;}.cls-8{fill:#184251;}.cls-9{fill:#efedee;}.cls-10{stroke:#35464c;}.cls-12{fill:#3e637d;}.cls-12,.cls-13,.cls-14{stroke:#142f3a;stroke-width:3.31px;}.cls-14{fill:#26384f;}</style></defs><g id="Layer_2" data-name="Layer 2"><path class="cls-1" d="M62.17,530C-60.33,456.4,29.85,404.41,96,404.75c29.11-1.14,54.48,9.29,55.54,9.59,3.52,1,5.55,1.35,4.55,4.87a6.62,6.62,0,0,1-8.17,4.55h0c-.24-.07-24.66-6.89-51.69-5.78-50.15.93-104.86,45.89-11.78,84.47C136.74,520.74,114,576,70.38,576,33.9,576,39,532.39,62.17,530Z"/><path class="cls-2" d="M58,944.56a43,43,0,0,1,3.81-20.73c3.45-10,10.17-18,22.93-27.68,20.51-15.54,43.34-36.66,31.4-374.11-.18-5.12-1.45-9.39,3.24-9.35s8,4.13,8.33,9.1c11.91,160.14,22.75,390.76,13.49,415.3,0,0-18.86,38.25-29.33,38.91l-24.33,0a26.52,26.52,0,0,1-25.43-15.47A43.14,43.14,0,0,1,58,944.56Z"/><path class="cls-3" d="M137.2,958.42c-5.93,10.55-14.83,17.31-25.31,18l-24.33,0a26.53,26.53,0,0,1-25.43-15.47,43.76,43.76,0,0,1-.8-35.59c-4.2,52.58,75.45,38.06,82.38-4.41C143.6,928.75,143.14,947.86,137.2,958.42Z"/><path class="cls-2" d="M152.65,538.06c-.05-4.4,3.16-8,7.16-8.11s7.3,3.43,7.34,7.83c.64,82.06,34.24,269,118.55,358.44h0c31.63.93,55.27,19.89,54.25,54.65h0c-.44,14.74-11.66,26.37-25.07,26l-35.75-1.23c-3.81-.11-8.1-2.69-11.86-5.75-5.74-4.67-12.16-10.69-15.81-17.44-6.35-11.77-8.41-24-13.23-36.64C156.76,736.09,152.67,540.19,152.65,538.06Z"/><path class="cls-3" d="M339.58,951.07c-.43,14.61-11.55,26.13-24.85,25.74l-36-1.24c-3.81-.11-8.1-2.69-11.86-5.75a59.53,59.53,0,0,1-14.79-17.4c-4.79-8.89-9.36-18.23-10.84-28,0-.27-.17-.21,0,0,41.18,50.78,101.15,45.64,94.36,2h.14c2.94,7,4.08,15.16,3.81,24.46Z"/><path class="cls-2" d="M133.13,546.85h0c-71.57-22.67-4.67-121.19,6-144.21,18.83-40.19,78.37-26.47,69.78,19.22L195,507.13a49.78,49.78,0,0,1-22,34A47.9,47.9,0,0,1,133.13,546.85Z"/><path class="cls-2" d="M322.55,232.2s-1.95-6.9-2.86-9.59c-21-71.43-20.88-128.5-5.92-184.73a8,8,0,0,0-1.93-7.71l-.33-.33a8.13,8.13,0,0,0-12.2,1.6c-29.15,43.35-80.13,75.14-150.56,92.19C78.92,136.11,26,195.33,26,266.5c0,80.25,68,144.58,150.88,144.58s150.15-63.25,150.15-143.5A140.9,140.9,0,0,0,322.55,232.2Z"/><path class="cls-4" d="M99.17,176.18h0c-19.62-9.84-41.4.5-52.74,23.1l-3.78,7.54c-11.33,22.6-7.93,48.89,11.69,58.73h0c19.61,9.84,44.7-.5,56-23.1l3.79-7.54C125.49,212.31,118.78,186,99.17,176.18Z"/><path class="cls-4" d="M244.55,187h0c-23,6.85-35.66,32.57-28.25,57.43l2.47,8.31c7.4,24.87,32.06,39.47,55.07,32.62h0c23-6.85,35.66-32.57,28.26-57.44l-2.47-8.3C292.22,194.77,267.56,180.17,244.55,187Z"/><path class="cls-5" d="M167.33,186.16c-2.71,15.67-17.87,27.6-33.54,24.88s-25.94-19-23.22-34.71a28.8,28.8,0,1,1,56.76,9.83Z"/><path class="cls-5" d="M223.39,195.87c-2.72,15.67-18.23,26.8-34.49,24s-27.12-18.52-24.41-34.19,18.35-27.52,34.61-24.7S226.1,180.19,223.39,195.87Z"/><rect class="cls-6" x="132.3" y="170.71" width="22.14" height="25.38" rx="11.07" transform="translate(33.4 -21.78) rotate(9.83)"/><rect class="cls-6" x="182.49" y="179.1" width="22.14" height="25.38" rx="11.07" transform="translate(59.34 -45.35) rotate(15.75)"/><circle class="cls-7" cx="159.97" cy="207.54" r="11.52"/><path class="cls-8" d="M164.15,124.78c-3.78-6.18-12-9.2-19-7.77-7.16,1.47-13.45,6.9-14.75,14.29-1.06,6.07,8.35,7.77,9.41,1.7,0-.31.11-.62.19-.93l.07-.18c.19-.45.39-.88.62-1.31.42-.78-.13,0,.43-.61.13-.14,1.21-1.36.83-1a11.13,11.13,0,0,1,2.51-1.79c-.32.18-.22.15.3-.11.32-.14.65-.27,1-.38.14,0,1.48-.39.79-.26a14.63,14.63,0,0,1,1.62-.2,5.52,5.52,0,0,1,1.16,0,11.59,11.59,0,0,1,2.7.57,7.34,7.34,0,0,1,4.3,3.52c1.35,2.2,4.67,2.55,6.67,1.12a4.88,4.88,0,0,0,1.12-6.67Z"/><path class="cls-8" d="M207,136.14c-.34.45.68-.61.84-.72-.51.36.51-.26.62-.32a3.29,3.29,0,0,1,1.13-.41,9.74,9.74,0,0,1,1.39-.27,9.49,9.49,0,0,1,4.93,1,9.32,9.32,0,0,1,4,4.48,10.66,10.66,0,0,1,.8,5.4c-.4,2.28.44,4.62,2.85,5.35,2,.61,4.95-.56,5.34-2.86,1.33-7.62-1.65-16.16-8.88-19.84-6.81-3.48-15.45-2.6-20.3,3.65-1.42,1.82-.49,4.76,1.33,5.91a4.38,4.38,0,0,0,5.91-1.34Z"/><ellipse class="cls-9" cx="199.09" cy="188.05" rx="3.14" ry="3.75" transform="translate(-16.54 19.22) rotate(-5.31)"/><ellipse class="cls-9" cx="148.45" cy="179.66" rx="3.14" ry="3.75" transform="translate(-15.98 14.5) rotate(-5.31)"/><path class="cls-6" d="M93,269.23c6,13.18,11.9,22.82,27.45,32.87s46.74,18,68.51,11c32.37-9.13,43.62-35.48,49.52-49.5,3.07-14.64-2.89-34.53-21.86-33-9.74,0-18.58,15.37-30,20.88s-22.32,6.25-33.87,4.76-18.57-6.69-29.48-10.17c-7.61-2.43-17.2-.46-24.88,2C98.35,248,86.06,254.18,93,269.23Z"/><path class="cls-10" d="M204.29,236.32A11.86,11.86,0,0,0,193,247.89a12,12,0,0,0,11.52,11.42,12.21,12.21,0,0,0,11.81-11.2,12.41,12.41,0,0,0-10.56-12.46Z"/><path class="cls-10" d="M189.18,250.4c-5.39-3.19-13.18-1.49-16.61,3.76s-1.72,13.22,3.66,16.44,13.35.84,15.92-4.88c2.11-4.71.64-10.17-.84-15.12Z"/><path class="cls-10" d="M164.9,256.59c-2-4.72-8-6.42-13.14-5.8-3.25.39-6.65,1.67-8.39,4.44s-1.39,6.59-.28,9.77a18,18,0,0,0,6.31,8.93,10.56,10.56,0,0,0,16.9-5.8,17.8,17.8,0,0,0-.26-9.94Z"/><path class="cls-10" d="M136.2,250.44A9.82,9.82,0,0,0,125,245.69a10.76,10.76,0,0,0-7.4,9.91,11.87,11.87,0,0,0,6.68,10.59,10.29,10.29,0,0,0,6.65.87c5.74-1.3,8.68-8.33,7.37-14.06Z"/><path class="cls-7" d="M247.24,241.48a28.33,28.33,0,0,0-13.4-16.11,34.15,34.15,0,0,0-17.9-3.46,50.16,50.16,0,0,0-9.42,1.61,42.56,42.56,0,0,0-7.24,2.61,188.89,188.89,0,0,0-17.87,10.07c-2.26,1.36-4.55,2.68-6.9,3.89a51.35,51.35,0,0,1-10.64,3.75,49,49,0,0,1-10.48.65,49.25,49.25,0,0,1-10.2-2.08,48.8,48.8,0,0,1-6.28-2.89c-2.43-1.33-4.78-2.82-7.21-4.16-5.48-3-11.78-5.2-18.13-4.54-12.9,1.23-19.84,11.83-22.24,17.05a37.08,37.08,0,0,0-3.18,15.5A43.4,43.4,0,0,0,88,275.66,45.66,45.66,0,0,0,93.72,287a86.37,86.37,0,0,0,23.52,24.29,91.67,91.67,0,0,0,15.64,8.85A88.29,88.29,0,0,0,150,325.62a89.24,89.24,0,0,0,38.45-1A80.93,80.93,0,0,0,205,318.79a86.46,86.46,0,0,0,16.5-10.08c9.66-7.67,17.87-17.48,22.76-28.88a59.35,59.35,0,0,0,4.8-17.61C249.71,255.26,249.49,248.16,247.24,241.48Zm-14.39,17.07a51.93,51.93,0,0,1-2.33,11.15,61.53,61.53,0,0,1-6.14,12.11,69.77,69.77,0,0,1-10.21,11.57,77.24,77.24,0,0,1-14.59,9.76,82.62,82.62,0,0,1-18.36,6.28,81.51,81.51,0,0,1-19.16,1.23A77.78,77.78,0,0,1,144.34,307a81.28,81.28,0,0,1-16.55-8.34,82,82,0,0,1-14.08-12.42,71.78,71.78,0,0,1-8.94-12.91,28.74,28.74,0,0,1-1.62-5,36.33,36.33,0,0,1-.48-6.83,28.51,28.51,0,0,1,1-5.17,22.76,22.76,0,0,1,1.65-3.27,22.33,22.33,0,0,1,2.22-2.53c.5-.4,1-.79,1.54-1.15a4.53,4.53,0,0,0,.78-.54,24.75,24.75,0,0,1,4.53-1.54,21.86,21.86,0,0,1,3.1.64c5.2,2.06,9.7,5.47,14.75,7.85a53.73,53.73,0,0,0,17.91,5,60.65,60.65,0,0,0,10.26.21,59.39,59.39,0,0,0,10.25-1.76c6.15-1.58,11.89-4.52,17.35-7.69s10.46-6.53,15.94-9.36a46.15,46.15,0,0,1,9.2-3.25,36.33,36.33,0,0,1,6.75-.48,26.45,26.45,0,0,1,4.67.93,20.38,20.38,0,0,1,2.64,1.33,18.88,18.88,0,0,1,1.85,1.61,20.3,20.3,0,0,1,1.62,2.41,28.64,28.64,0,0,1,1.67,5A43.79,43.79,0,0,1,232.85,258.55Z"/><path class="cls-11" d="M196,417.24C222.19,360.93,408,162.73,461.88,141.56c26.85-7.88,50.32,18.76,37.19,41.52a30.94,30.94,0,0,1-25.62,15.3c-76.51,6.32-240.68,183.21-266.13,228.14"/><path class="cls-12" d="M755.76,229.57c14.92-2.94,31.72-59.66,20-119S728.4,11.67,713.48,14.6a6.75,6.75,0,0,0-1.52.49l-179.5,62.1s-2.59,31.71,7.53,83.18c10.66,54.19,24.54,79.83,24.54,79.83l189.64-10.51A7.06,7.06,0,0,0,755.76,229.57Z"/><path class="cls-13" d="M557,146.76C548,88.2,545.79,91.28,529.85,80.42l55.88-21.66c12.37.06,40.31,28.26,48.33,80.1,8.46,54.58-5.32,95.36-16.82,98.42l-67.13,3.26C561.25,223.41,564.77,198,557,146.76Z"/><path class="cls-12" d="M574.1,317.75c-25,5-62.77-34.94-85.12-147.17C467,60.42,486.9,7,512,2c28.18-5.61,58.33,61.9,75.49,149.09S598,313,574.1,317.75Z"/><path class="cls-14" d="M545.42,251.66c-13.81,2.61-25.86-19.15-37.59-81.19-11.52-60.89-8.86-90.74,5-93.36,15.57-3,31.85,34.46,40.85,82.66S558.65,249.16,545.42,251.66Z"/><path class="cls-1" d="M441.24,153.47c11.28-9.93,71-38,70.9-7.62.07,10.47-23.3,17.61-23.3,17.61,1.05,16.32,9.08,42.66,16.51,70.29-13.42,7.85-32.73,3.49-42.1-7.85-7.77-9.41-16.47-26.09-14.19-45.16"/></g></svg>