<svg width="311" height="866" viewBox="0 0 311 866" fill="none" xmlns="http://www.w3.org/2000/svg">
<path d="M178.473 479.746C178.473 479.746 183.78 625.519 187.267 663.25C190.755 700.981 194.091 768.413 220.475 784.475C246.859 800.537 254.744 814.175 254.744 833.571C254.744 852.967 243.372 864.483 216.987 864.483C190.603 864.483 170.284 857.513 167.858 816.448C164.371 758.109 164.067 482.625 164.067 482.625L178.473 479.746Z" fill="#7ACCFF" stroke="#006785" stroke-width="2.0012" stroke-miterlimit="10" stroke-linecap="round" stroke-linejoin="round"/>
<path d="M145.417 479.746C145.417 479.746 140.109 625.519 136.622 663.25C133.134 700.981 129.798 768.413 103.414 784.475C77.0299 800.537 69.145 814.175 69.145 833.571C69.145 852.967 80.5175 864.483 106.902 864.483C133.286 864.483 153.605 857.513 156.031 816.448C159.518 758.109 159.822 482.625 159.822 482.625L145.417 479.746Z" fill="#7ACCFF" stroke="#006785" stroke-width="2.0012" stroke-miterlimit="10" stroke-linecap="round" stroke-linejoin="round"/>
<path d="M282.341 607.333C270.969 587.937 255.957 560.51 240.036 508.989C224.114 457.469 216.836 385.34 216.836 385.34L197.73 387.764C197.73 387.764 212.59 495.2 219.414 535.204C226.237 575.208 229.27 599.15 240.642 643.246C246.404 659.308 255.502 664.915 267.026 664.915C282.19 664.915 294.472 652.186 294.472 636.275C294.32 627.486 283.554 609.303 282.341 607.333Z" fill="#7ACCFF" stroke="#006785" stroke-width="2.0012" stroke-miterlimit="10" stroke-linecap="round" stroke-linejoin="round"/>
<path d="M63.3827 602.787C73.3905 582.634 86.2793 554.146 98.5616 501.716C110.844 449.287 112.815 376.703 112.815 376.703L132.073 377.764C132.073 377.764 124.946 485.957 120.852 526.416C116.909 566.875 115.545 590.817 107.508 635.67C102.959 652.035 94.1642 658.399 82.7917 659.157C67.6284 660.218 54.4363 648.398 53.3749 632.639C52.92 623.699 62.3212 604.909 63.3827 602.787Z" fill="#7ACCFF" stroke="#006785" stroke-width="2.0012" stroke-miterlimit="10" stroke-linecap="round" stroke-linejoin="round"/>
<path d="M205.615 378.675C205.615 361.552 126.614 366.098 126.614 366.098C126.614 366.098 119.487 405.647 115.848 420.346C115.545 421.255 113.725 430.953 113.725 435.044C113.725 462.623 135.409 485.049 162.248 485.049C189.087 485.049 210.77 462.623 210.77 435.044C210.77 429.286 205.615 395.798 205.615 378.675Z" fill="#7ACCFF" stroke="#006785" stroke-width="2.0012" stroke-miterlimit="10" stroke-linecap="round" stroke-linejoin="round"/>
<path d="M124.491 439.438C125.704 444.135 128.737 453.53 136.622 459.894" stroke="white" stroke-width="6.0035" stroke-miterlimit="10" stroke-linecap="round" stroke-linejoin="round"/>
<path d="M250.499 812.81C250.802 813.87 257.625 847.359 219.414 846.146C180.596 844.934 168.313 822.659 167.555 809.324C167.707 812.052 167.858 814.325 167.858 816.446C170.285 857.511 190.755 864.482 216.988 864.482C243.22 864.482 254.744 853.117 254.744 833.569C254.744 825.993 253.531 819.174 250.499 812.81Z" fill="#0086B1" stroke="#006785" stroke-width="2.0012" stroke-miterlimit="10" stroke-linecap="round" stroke-linejoin="round"/>
<path d="M73.5424 812.81C73.2392 813.87 66.4157 847.359 104.627 846.146C143.445 844.934 155.728 822.659 156.486 809.324C156.334 812.052 156.183 814.325 156.183 816.446C153.756 857.511 133.286 864.482 107.053 864.482C80.8208 864.482 69.2967 853.117 69.2967 833.569C69.1451 825.993 70.3581 819.174 73.5424 812.81Z" fill="#0086B1" stroke="#006785" stroke-width="2.0012" stroke-miterlimit="10" stroke-linecap="round" stroke-linejoin="round"/>
<path d="M281.735 6.51338C274.911 15.6052 251.408 53.9426 187.419 79.0968C123.43 104.251 64.8992 101.978 23.8066 168.349C-17.2861 234.719 -7.12663 344.428 103.869 385.493C214.865 426.558 275.973 342.609 289.771 320.94C303.57 299.271 317.217 259.267 304.632 208.959C292.046 158.651 279.46 116.373 287.497 63.7921C295.534 11.2108 299.173 6.21032 290.985 2.11898C286.284 -0.305518 281.735 6.51338 281.735 6.51338Z" fill="#7BCEFF" stroke="#006785" stroke-width="2.0012" stroke-miterlimit="10" stroke-linecap="round" stroke-linejoin="round"/>
<path d="M235.032 299.119C260.49 299.119 281.129 274.56 281.129 244.264C281.129 213.969 260.49 189.41 235.032 189.41C209.574 189.41 188.936 213.969 188.936 244.264C188.936 274.56 209.574 299.119 235.032 299.119Z" fill="#0086B1" stroke="#006785" stroke-width="2.0012" stroke-miterlimit="10" stroke-linecap="round" stroke-linejoin="round"/>
<path d="M48.371 311.696C70.4797 311.696 88.4022 288.426 88.4022 259.721C88.4022 231.016 70.4797 207.746 48.371 207.746C26.2624 207.746 8.33984 231.016 8.33984 259.721C8.33984 288.426 26.2624 311.696 48.371 311.696Z" fill="#0086B1" stroke="#006785" stroke-width="2.0012" stroke-miterlimit="10" stroke-linecap="round" stroke-linejoin="round"/>
<path d="M107.811 216.838C124.225 216.838 137.532 203.54 137.532 187.138C137.532 170.735 124.225 157.438 107.811 157.438C91.3975 157.438 78.0913 170.735 78.0913 187.138C78.0913 203.54 91.3975 216.838 107.811 216.838Z" fill="white" stroke="#006785" stroke-width="2.0012" stroke-miterlimit="10" stroke-linecap="round" stroke-linejoin="round"/>
<path d="M164.977 216.838C181.391 216.838 194.697 203.54 194.697 187.138C194.697 170.735 181.391 157.438 164.977 157.438C148.563 157.438 135.257 170.735 135.257 187.138C135.257 203.54 148.563 216.838 164.977 216.838Z" fill="white" stroke="#006785" stroke-width="2.0012" stroke-miterlimit="10" stroke-linecap="round" stroke-linejoin="round"/>
<path d="M132.983 222.595C139.933 222.595 145.568 216.965 145.568 210.018C145.568 203.072 139.933 197.441 132.983 197.441C126.032 197.441 120.397 203.072 120.397 210.018C120.397 216.965 126.032 222.595 132.983 222.595Z" fill="#EB6C4E" stroke="#D12E0E" stroke-width="1.4008" stroke-miterlimit="10" stroke-linecap="round" stroke-linejoin="round"/>
<path d="M113.422 199.111C119.452 199.111 124.34 193.48 124.34 186.534C124.34 179.588 119.452 173.957 113.422 173.957C107.392 173.957 102.504 179.588 102.504 186.534C102.504 193.48 107.392 199.111 113.422 199.111Z" fill="#221E1F"/>
<path d="M166.039 198.05C172.068 198.05 176.956 192.148 176.956 184.867C176.956 177.586 172.068 171.684 166.039 171.684C160.009 171.684 155.121 177.586 155.121 184.867C155.121 192.148 160.009 198.05 166.039 198.05Z" fill="#221E1F"/>
<path d="M110.389 134.102C111.754 125.92 117.971 119.707 125.552 119.707C131.921 119.707 137.38 124.101 139.806 130.466" stroke="#006785" stroke-width="4.0024" stroke-miterlimit="10" stroke-linecap="round" stroke-linejoin="round"/>
<path d="M155.273 129.405C158.912 123.344 166.191 120.617 172.711 123.041C178.17 125.163 181.506 130.466 181.657 136.224" stroke="#006785" stroke-width="4.0024" stroke-miterlimit="10" stroke-linecap="round" stroke-linejoin="round"/>
<path d="M39.728 184.26C41.6993 178.047 45.945 167.894 54.5881 157.893C62.1698 149.256 70.0547 143.952 75.5135 140.922" stroke="white" stroke-width="10.0059" stroke-miterlimit="10" stroke-linecap="round" stroke-linejoin="round"/>
<path d="M187.267 284.723C185.296 284.723 183.173 284.117 181.202 283.056C153.756 266.994 110.995 264.873 89.7667 278.51C84.0046 282.299 76.2713 280.632 72.4805 274.722C68.6897 268.964 70.3576 261.236 76.2713 257.447C90.9798 247.901 111.754 243.355 134.65 244.567C155.879 245.78 177.562 251.841 193.939 261.387C199.853 264.872 201.975 272.601 198.488 278.51C195.91 282.602 191.664 284.723 187.267 284.723Z" fill="#D85C36" stroke="#61271B" stroke-width="1.9838" stroke-miterlimit="10"/>
<path d="M183.476 269.118C183.476 269.118 129.495 242.903 88.2505 264.723" stroke="#61271B" stroke-width="1.9838" stroke-miterlimit="10" stroke-linecap="round"/>
<path d="M189.086 265.328C184.083 267.904 182.718 271.541 183.628 277.148" stroke="#61271B" stroke-width="1.9838" stroke-miterlimit="10" stroke-linecap="round"/>
<path d="M87.3404 272.906C89.3116 267.602 87.7953 263.966 83.3979 260.48" stroke="#61271B" stroke-width="1.9838" stroke-miterlimit="10" stroke-linecap="round"/>
</svg>
